<svg width="2912" height="1424" viewBox="0 0 2912 1424" fill="none" xmlns="http://www.w3.org/2000/svg">
<path d="M2210.69 998.093C2114.2 740.608 2212.53 531.281 2213.52 529.181L2218.23 531.443C2217.24 533.52 2119.91 740.956 2215.59 996.253L2210.69 998.093Z" fill="#D4EDFF"/>
<path d="M2212.33 536.44C2212.33 536.44 2209.67 519.777 2217.48 505.065C2220.29 499.743 2229.17 492.663 2234.13 495.279C2239.08 497.907 2239.51 506.812 2235.41 514.565C2227.61 529.265 2212.33 536.44 2212.33 536.44Z" fill="#D4EDFF"/>
<path d="M2203.12 563.815C2203.12 563.815 2209.91 550.368 2223.29 543.343C2228.15 540.787 2238.36 539.864 2240.6 544.129C2242.84 548.407 2238.51 555.125 2231.44 558.832C2218.05 565.861 2203.12 563.815 2203.12 563.815Z" fill="#D4EDFF"/>
<path d="M2191.63 611.527C2191.63 611.527 2198.6 599.572 2210.76 595.54C2215.17 594.08 2224.07 595.447 2225.67 600.258C2227.24 605.055 2222.93 610.815 2216.52 612.933C2204.36 616.955 2191.63 611.527 2191.63 611.527Z" fill="#D4EDFF"/>
<path d="M2205.25 562.683C2205.25 562.683 2191.64 560.636 2183.45 550.891C2180.49 547.347 2178.48 538.633 2182.31 535.397C2186.17 532.169 2193.07 534.041 2197.39 539.18C2205.57 548.937 2205.25 562.683 2205.25 562.683Z" fill="#D4EDFF"/>
<path d="M2178.17 868.533C2178.17 868.533 2164.33 871.227 2151.85 865.12C2147.32 862.907 2141.2 855.68 2143.27 851.467C2145.32 847.255 2152.73 846.637 2159.31 849.867C2171.8 855.96 2178.17 868.533 2178.17 868.533Z" fill="#D4EDFF"/>
<path d="M2188.67 610.675C2188.67 610.675 2173.31 607.101 2163.29 595.196C2159.65 590.861 2156.64 580.683 2160.65 577.316C2164.65 573.967 2172.51 576.723 2177.77 583.003C2187.79 594.931 2188.67 610.675 2188.67 610.675Z" fill="#D4EDFF"/>
<path d="M2176.85 661.697C2176.85 661.697 2161.17 660.467 2152.43 650.039C2149.25 646.271 2147.63 636.529 2152.35 632.548C2157.09 628.576 2164.97 630.153 2169.57 635.635C2178.32 646.055 2176.85 661.697 2176.85 661.697Z" fill="#D4EDFF"/>
<path d="M2180.85 661.445C2180.85 661.445 2186.04 646.849 2198.43 640.393C2202.92 638.059 2212.87 638.215 2215.55 643.407C2218.25 648.576 2214.73 655.752 2208.19 659.144C2195.8 665.589 2180.85 661.445 2180.85 661.445Z" fill="#D4EDFF"/>
<path d="M2179.96 870.387C2179.96 870.387 2179.17 857.293 2188.15 845.156C2191.4 840.763 2200.61 834.631 2205.04 836.425C2209.48 838.207 2208.96 845.252 2204.23 851.653C2195.27 863.773 2179.96 870.387 2179.96 870.387Z" fill="#D4EDFF"/>
<path d="M2170.25 762.688C2170.25 762.688 2176.08 754.339 2188.83 750.643C2193.44 749.307 2203.45 749.377 2205.96 752.312C2208.47 755.255 2204.59 759.356 2197.88 761.311C2185.13 765.003 2170.25 762.688 2170.25 762.688Z" fill="#D4EDFF"/>
<path d="M2170.49 715.239C2170.49 715.239 2161.21 712.981 2154.43 703.244C2151.97 699.708 2149.4 691.084 2151.48 687.965C2153.56 684.844 2158.37 686.809 2161.96 691.953C2168.76 701.687 2170.49 715.239 2170.49 715.239Z" fill="#D4EDFF"/>
<path d="M2174.36 819.431C2174.36 819.431 2174.25 803.028 2180.73 792.736C2183.08 789.005 2189.51 786.184 2192.47 790.64C2195.43 795.104 2194.84 803.465 2191.43 808.871C2184.96 819.167 2174.36 819.431 2174.36 819.431Z" fill="#D4EDFF"/>
<path d="M2171.45 764.612C2171.45 764.612 2152.44 762.188 2139.92 753.049C2135.39 749.721 2131.55 741.765 2136.44 739.005C2141.32 736.251 2151.05 738.229 2157.65 743.063C2170.17 752.195 2171.45 764.612 2171.45 764.612Z" fill="#D4EDFF"/>
<path d="M2172.41 821.767C2172.41 821.767 2154.39 819.433 2143.41 810.735C2139.43 807.587 2136.63 800.028 2141.65 797.432C2146.68 794.831 2155.83 796.724 2161.6 801.301C2172.59 810.003 2172.41 821.767 2172.41 821.767Z" fill="#D4EDFF"/>
<path d="M2358 606.043C2358 606.043 2344.15 608.733 2331.67 602.643C2327.15 600.42 2321.03 593.177 2323.07 588.961C2325.13 584.753 2332.55 584.144 2339.12 587.365C2351.6 593.469 2358 606.043 2358 606.043Z" fill="#D4EDFF"/>
<path d="M2202.17 962.267C2202.17 962.267 2201.39 949.187 2210.37 937.067C2213.61 932.653 2222.81 926.52 2227.27 928.32C2231.71 930.093 2231.17 937.147 2226.45 943.533C2217.48 955.68 2202.17 962.267 2202.17 962.267Z" fill="#D4EDFF"/>
<path d="M2188.65 917.293C2188.65 917.293 2189.29 907.12 2198.37 897.4C2201.65 893.893 2210.35 888.84 2214.07 890.107C2217.77 891.373 2216.6 896.893 2211.83 902.013C2202.75 911.72 2188.65 917.293 2188.65 917.293Z" fill="#D4EDFF"/>
<path d="M2231.16 710.357C2231.16 710.357 2236.85 696.193 2246.32 688.676C2249.75 685.935 2256.53 684.844 2257.64 689.299C2258.71 693.745 2255.25 700.843 2250.27 704.793C2240.81 712.319 2231.16 710.357 2231.16 710.357Z" fill="#D4EDFF"/>
<path d="M2201.81 964.24C2201.81 964.24 2182.64 964.24 2169.08 956.773C2164.16 954.04 2159.32 946.64 2163.83 943.28C2168.35 939.933 2178.25 940.667 2185.4 944.613C2198.99 952.107 2201.81 964.24 2201.81 964.24Z" fill="#D4EDFF"/>
<path d="M2188.37 918.387C2188.37 918.387 2170.92 918.333 2159.96 911.36C2155.99 908.827 2152.95 901.947 2157.65 898.853C2162.37 895.76 2171.25 896.467 2177.03 900.147C2188 907.12 2188.37 918.387 2188.37 918.387Z" fill="#D4EDFF"/>
<path d="M2171.99 718.592C2171.99 718.592 2176.61 706.508 2189.77 696.997C2194.55 693.564 2205.52 689.559 2208.84 691.988C2212.2 694.407 2208.84 700.748 2201.89 705.751C2188.73 715.256 2171.99 718.592 2171.99 718.592Z" fill="#D4EDFF"/>
<path d="M682.32 958.053C682.32 958.053 670.437 960.067 660.628 954.293C657.069 952.2 652.694 945.613 654.868 941.92C657.034 938.227 663.314 937.893 668.481 940.933C678.294 946.693 682.32 958.053 682.32 958.053Z" fill="#8DCFFF"/>
<path d="M699.356 966.467C699.356 966.467 691.023 960.027 689.079 950.4C688.377 946.92 690.189 940.28 693.925 939.533C697.661 938.773 701.587 942.6 702.608 947.667C704.553 957.293 699.356 966.467 699.356 966.467Z" fill="#8DCFFF"/>
<path d="M716.965 979.96C716.965 979.96 711.976 970.68 714.129 961.107C714.912 957.627 719.276 952.307 722.999 953.147C726.713 953.987 728.733 959.08 727.601 964.133C725.441 973.707 716.965 979.96 716.965 979.96Z" fill="#8DCFFF"/>
<path d="M699.663 966.987C699.663 966.987 694.645 975.36 685.661 979.307C682.407 980.747 675.763 980.907 674.511 978.053C673.256 975.2 676.383 971.053 681.116 968.987C690.105 965.027 699.663 966.987 699.663 966.987Z" fill="#8DCFFF"/>
<path d="M717.803 978.813C717.803 978.813 712.913 987.493 703.929 991.427C700.675 992.867 693.969 992.893 692.642 989.88C691.321 986.853 694.386 982.587 699.122 980.507C708.108 976.56 717.803 978.813 717.803 978.813Z" fill="#8DCFFF"/>
<path d="M739.4 999.4C739.4 999.4 736.248 1007.32 729.381 1010.33C726.892 1011.43 721.529 1010.87 720.2 1007.85C718.876 1004.83 720.96 1001 724.574 999.4C731.434 996.387 739.4 999.4 739.4 999.4Z" fill="#8DCFFF"/>
<path d="M740.126 998.453C740.126 998.453 735.664 991.653 736.237 983.707C736.448 980.827 739.02 976 741.737 976.213C744.466 976.413 746.409 980.227 746.102 984.427C745.529 992.36 740.126 998.453 740.126 998.453Z" fill="#8DCFFF"/>
<path d="M842.618 1061.6C844.605 1060.07 845.389 1058.55 845.445 1058.44L843.658 1057.55L844.549 1057.99L843.658 1057.53C843.576 1057.71 841.449 1061.69 834.756 1062.68C827.249 1063.79 817.277 1060.77 805.136 1053.69C788.47 1044 768.177 1026.85 744.812 1002.71C717.668 974.693 698.654 965.2 686.068 958.92C682.846 957.307 680.056 955.907 677.809 954.52L676.758 956.213C679.08 957.653 681.905 959.067 685.172 960.707C697.633 966.92 716.472 976.32 743.373 1004.11C795.398 1057.81 822.008 1066.67 835.173 1064.64C838.612 1064.11 841.01 1062.85 842.618 1061.6Z" fill="#8DCFFF"/>
<path d="M568.168 1105.77C558.564 1067.33 582.894 1037.93 659.302 1028.73C742.697 1018.68 817.6 1038.84 877.24 1067.79C745.966 941 597.176 766.575 758.896 764.503C809.317 763.861 879.516 808.593 954.934 875.04C879.51 746.685 843.2 643.785 903.337 631.443C959.177 619.948 1052.05 727.548 1146.83 867.453C1098.33 753.341 1075.32 655.711 1111.93 614.445C1141.83 580.761 1186.57 627.416 1233.39 710.176C1241.57 642.404 1266.48 603.479 1307.07 615.913C1345.25 627.592 1364.65 708.972 1372.43 805.051C1433.56 663.453 1547.71 584.637 1641.39 638.981C1751.43 702.82 1600.44 1041.8 1520.91 1202.16L568.168 1105.77Z" fill="#D4EDFF"/>
<path d="M1458.04 1103.23C1380.17 1061.12 1439.47 1042.73 1510.87 1040.19C1475.11 1008.89 1495.4 976.693 1579.41 938.2C1617.13 920.92 1664.05 927.987 1710.51 946.56C1743.59 880.973 1789.69 835.173 1845.57 856.773C1891.76 874.64 1926.35 897.08 1948.27 921.64C1962.17 915.76 1977.17 910.133 1993.27 904.853C2028.28 893.36 2054.73 900.08 2074.23 917.707C2142.2 876.6 2211.59 851.28 2253.8 876.053C2327.21 919.147 2338.11 957.813 2292.63 998.36C2364.03 997.707 2418.44 1017.28 2327.21 1073.39C2411.59 1061.35 2472.35 1067.17 2437.91 1116.57C2361.11 1226.68 1981.93 1260.12 1696.64 1222.93C1517.35 1221.27 1367.28 1196.41 1336.63 1143.39C1314.05 1104.36 1376.39 1096.97 1458.04 1103.23Z" fill="#8DCFFF"/>
<path d="M2403.69 1011.19C2324.65 1046.11 2272.48 1116.89 2257.4 1196.49C2326.4 1238.95 2413.87 1248.04 2492.91 1213.12C2571.96 1178.19 2624.13 1107.4 2639.2 1027.81C2570.2 985.36 2482.73 976.28 2403.69 1011.19Z" fill="#ACD4F8"/>
<path d="M2608.57 1039.91L2271.36 1188.89" stroke="white" stroke-width="2.17507" stroke-miterlimit="10"/>
<path d="M2539.2 1071.04L2595.77 1097.75" stroke="white" stroke-width="2.17507" stroke-miterlimit="10"/>
<path d="M2481.69 1096.44L2551.44 1129.36" stroke="white" stroke-width="2.17507" stroke-miterlimit="10"/>
<path d="M2424.2 1121.85L2540.77 1176.88" stroke="white" stroke-width="2.17507" stroke-miterlimit="10"/>
<path d="M2366.71 1147.25L2480.12 1200.8" stroke="white" stroke-width="2.17507" stroke-miterlimit="10"/>
<path d="M2309.2 1172.65L2372.36 1202.47" stroke="white" stroke-width="2.17507" stroke-miterlimit="10"/>
<path d="M2545.69 1066.96L2564.04 1007.15" stroke="white" stroke-width="2.17507" stroke-miterlimit="10"/>
<path d="M2488.2 1092.37L2516.79 999.12" stroke="white" stroke-width="2.17507" stroke-miterlimit="10"/>
<path d="M2430.69 1117.77L2466.51 1001.04" stroke="white" stroke-width="2.17507" stroke-miterlimit="10"/>
<path d="M2373.2 1143.19L2409.97 1023.27" stroke="white" stroke-width="2.17507" stroke-miterlimit="10"/>
<path d="M2315.69 1168.57L2347.29 1065.57" stroke="white" stroke-width="2.17507" stroke-miterlimit="10"/>
<path d="M2148.36 987.32C2094.27 1065.97 2086.23 1162.8 2118.19 1246.4C2207.69 1246.33 2295.23 1204.17 2349.32 1125.51C2403.43 1046.84 2411.45 950.013 2379.48 866.413C2289.99 866.493 2202.45 908.64 2148.36 987.32Z" fill="#ACD4F8"/>
<path d="M2357.69 895.547L2126.91 1231.15" stroke="white" stroke-width="2.40305" stroke-miterlimit="10"/>
<path d="M2310.49 965.04L2379.19 957.373" stroke="white" stroke-width="2.40305" stroke-miterlimit="10"/>
<path d="M2271.15 1022.27L2355.81 1012.81" stroke="white" stroke-width="2.40305" stroke-miterlimit="10"/>
<path d="M2231.79 1079.49L2373.33 1063.68" stroke="white" stroke-width="2.40305" stroke-miterlimit="10"/>
<path d="M2192.44 1136.72L2330.15 1121.33" stroke="white" stroke-width="2.40305" stroke-miterlimit="10"/>
<path d="M2153.09 1193.95L2229.76 1185.39" stroke="white" stroke-width="2.40305" stroke-miterlimit="10"/>
<path d="M2314.24 957.453L2296.81 890.56" stroke="white" stroke-width="2.40305" stroke-miterlimit="10"/>
<path d="M2274.89 1014.68L2247.73 910.387" stroke="white" stroke-width="2.40305" stroke-miterlimit="10"/>
<path d="M2235.53 1071.91L2201.55 941.36" stroke="white" stroke-width="2.40305" stroke-miterlimit="10"/>
<path d="M2196.2 1129.12L2161.27 995.04" stroke="white" stroke-width="2.40305" stroke-miterlimit="10"/>
<path d="M2156.83 1186.35L2126.84 1071.16" stroke="white" stroke-width="2.40305" stroke-miterlimit="10"/>
<path d="M2318.92 1150.32C2134.99 1148.51 1565.07 1140.64 1219.2 1117.44C577.872 1074.44 54.0396 1145.73 398.118 1227.04C494.269 1249.76 216.917 1386.05 895.786 1416.79C1491.72 1443.76 2099.21 1385.87 2393.24 1361.03C2687.27 1336.16 2822.95 1292.08 2885.95 1272.21C2941.35 1254.73 2961.81 1156.65 2318.92 1150.32Z" fill="#E9F6FF"/>
<path d="M2307.69 754.651C2307.69 754.651 2302.52 737.357 2309.32 721.712C2311.77 716.044 2320.77 708.328 2326.67 710.891C2332.55 713.429 2334.2 722.708 2330.63 730.948C2323.84 746.601 2307.69 754.651 2307.69 754.651Z" fill="#8DCFFF"/>
<path d="M2298.29 781.531C2298.29 781.531 2306.36 767.952 2320.31 763.311C2325.36 761.628 2335.55 763.105 2337.36 768.531C2339.16 773.951 2334.2 780.485 2326.84 782.928C2312.88 787.584 2298.29 781.531 2298.29 781.531Z" fill="#8DCFFF"/>
<path d="M2281.45 810.175C2281.45 810.175 2294.35 801.067 2308.99 802.521C2314.29 803.049 2322.99 808.563 2322.41 814.247C2321.85 819.928 2314.65 823.863 2306.93 823.101C2292.29 821.648 2281.45 810.175 2281.45 810.175Z" fill="#8DCFFF"/>
<path d="M2297.57 782.084C2297.57 782.084 2284.2 776.151 2276.69 763.512C2273.97 758.925 2272.52 749.08 2276.53 746.704C2280.55 744.311 2287.25 748.203 2291.23 754.861C2298.75 767.512 2297.57 782.084 2297.57 782.084Z" fill="#8DCFFF"/>
<path d="M2283.31 811.212C2283.31 811.212 2269.51 805.533 2262 792.888C2259.28 788.315 2258.01 778.352 2262.25 775.828C2266.51 773.307 2273.41 777.084 2277.37 783.752C2284.89 796.387 2283.31 811.212 2283.31 811.212Z" fill="#8DCFFF"/>
<path d="M2256.64 847.097C2256.64 847.097 2244.28 843.855 2238.55 834.209C2236.47 830.699 2236.33 822.612 2240.57 820.088C2244.81 817.565 2250.91 819.965 2253.93 825.051C2259.67 834.711 2256.64 847.097 2256.64 847.097Z" fill="#8DCFFF"/>
<path d="M2258.19 848.008C2258.19 848.008 2267.48 840.132 2279.41 839.528C2283.73 839.308 2291.36 842.245 2291.55 846.341C2291.76 850.427 2286.43 854.013 2280.15 854.333C2268.21 854.92 2258.19 848.008 2258.19 848.008Z" fill="#8DCFFF"/>
<path d="M2183.01 1011.96C2185.67 1014.64 2188.07 1015.52 2188.25 1015.59L2189.25 1012.77L2188.75 1014.17L2189.27 1012.77C2188.99 1012.68 2182.67 1010.24 2179.97 1000.47C2176.95 989.493 2179.63 974.133 2187.92 954.773C2199.31 928.227 2221.09 894.907 2252.71 855.747C2289.41 810.267 2300.05 780.249 2307.11 760.387C2308.91 755.293 2310.47 750.895 2312.12 747.308L2309.4 746.059C2307.69 749.769 2306.11 754.231 2304.28 759.388C2297.31 779.061 2286.77 808.779 2250.37 853.867C2180.01 941.04 2171.72 982.227 2177.13 1001.44C2178.56 1006.47 2180.87 1009.8 2183.01 1011.96Z" fill="#8DCFFF"/>
<path d="M3.55579 1266.43C-6.72155 1250.63 6.06247 1237.19 54.9051 1230.04C108.206 1222.24 159.138 1227.55 201.033 1237.2C102.217 1189.32 -13.0015 1122.08 92.1905 1114.31C124.993 1111.88 175.432 1127.76 231.529 1152.57C168.954 1101.65 134.521 1059.77 172.438 1052C207.633 1044.77 279.414 1086.2 355.812 1141.17C312.277 1095.11 287.071 1054.89 306.624 1035.92C322.584 1020.44 356.633 1038.21 395.792 1071.13C394.048 1042.19 406.206 1024.71 433.97 1028.21C460.081 1031.51 481.232 1065.01 496.333 1105.21C521.385 1042.88 587.544 1004.75 654.286 1023.67C732.689 1045.91 669.705 1195.37 634.63 1266.43H3.55579Z" fill="#ACD4F8"/>
<path d="M408.498 1200.73L412.077 1199.67C386.625 1114.43 340.765 989.88 266.836 880.573C222.562 815.123 188.697 785.797 188.357 785.508L185.932 788.341C186.265 788.627 219.844 817.728 263.856 882.84C304.482 942.933 362.553 1046.87 408.498 1200.73Z" fill="#ACD4F8"/>
<path d="M427.473 1167.67L431.191 1167.36C416.781 989.867 327.257 837.276 326.356 835.753L323.148 837.66C324.047 839.175 413.135 991.053 427.473 1167.67Z" fill="#ACD4F8"/>
<path d="M360.505 1184.37L364.223 1184.05C356.964 1098.75 320.833 1044.71 291.801 1014.4C260.301 981.52 230.029 968.64 229.729 968.52L228.291 971.96C228.585 972.08 258.264 984.733 289.233 1017.12C317.799 1046.99 353.349 1100.25 360.505 1184.37Z" fill="#ACD4F8"/>
<path d="M170.529 763.308C146.089 780.501 131.94 802.468 138.907 812.363C145.867 822.267 171.328 816.349 195.759 799.148C220.192 781.955 234.343 759.991 227.376 750.088C220.409 740.193 194.957 746.109 170.529 763.308Z" fill="#ACD4F8"/>
<path d="M179.134 775.539C171.374 780.997 166.878 787.975 169.093 791.116C171.308 794.259 179.39 792.383 187.144 786.924C194.904 781.459 199.4 774.487 197.189 771.347C194.973 768.201 186.89 770.077 179.134 775.539Z" fill="#0063CB"/>
<path d="M317.837 826.872C307.66 834.029 301.767 843.184 304.667 847.304C307.565 851.427 318.165 848.96 328.337 841.805C338.515 834.639 344.401 825.492 341.503 821.377C338.599 817.252 328.003 819.712 317.837 826.872Z" fill="#ACD4F8"/>
<path d="M321.417 831.968C318.182 834.24 316.312 837.145 317.233 838.457C318.154 839.763 321.521 838.981 324.753 836.705C327.978 834.431 329.85 831.531 328.929 830.22C328.012 828.911 324.642 829.692 321.417 831.968Z" fill="#0063CB"/>
<path d="M219.966 962.72C209.714 975.053 205.457 988.413 210.45 992.573C215.445 996.72 227.812 990.08 238.058 977.76C248.309 965.427 252.565 952.053 247.574 947.907C242.572 943.747 230.213 950.387 219.966 962.72Z" fill="#ACD4F8"/>
<path d="M226.134 967.853C222.888 971.76 221.529 976.013 223.118 977.333C224.708 978.653 228.633 976.533 231.889 972.627C235.138 968.707 236.496 964.467 234.904 963.147C233.313 961.827 229.392 963.933 226.134 967.853Z" fill="#0063CB"/>
<path d="M282.993 1164.63C279.64 1164.12 277.311 1160.97 277.817 1157.61C278.335 1154.25 281.479 1151.93 284.84 1152.44C288.197 1152.95 290.519 1156.09 290.012 1159.47C289.503 1162.83 286.364 1165.15 282.993 1164.63ZM297.017 1160.39C296.597 1160.05 296.172 1159.75 295.747 1159.44C295.969 1159.36 296.189 1159.28 296.408 1159.2C302.273 1156.89 306.057 1152.56 304.849 1149.49C303.648 1146.44 297.919 1145.81 292.071 1148.11C291.564 1148.31 291.084 1148.52 290.621 1148.75C290.66 1148.52 290.711 1148.28 290.739 1148.04C291.684 1141.83 289.815 1136.39 286.565 1135.88C283.309 1135.4 279.916 1140.04 278.972 1146.27C278.891 1146.8 278.836 1147.32 278.795 1147.84C278.613 1147.69 278.436 1147.52 278.251 1147.39C273.337 1143.45 267.683 1142.35 265.625 1144.92C263.581 1147.48 265.899 1152.76 270.817 1156.68C271.235 1157.03 271.664 1157.32 272.092 1157.63C271.869 1157.71 271.649 1157.77 271.429 1157.87C265.571 1160.16 261.792 1164.51 262.985 1167.56C264.181 1170.63 269.911 1171.25 275.759 1168.96C276.271 1168.76 276.749 1168.55 277.217 1168.31C277.175 1168.55 277.128 1168.79 277.1 1169.03C276.148 1175.25 278.029 1180.68 281.276 1181.17C284.528 1181.67 287.931 1177.03 288.868 1170.8C288.952 1170.27 289 1169.75 289.039 1169.23C289.224 1169.39 289.403 1169.53 289.592 1169.68C294.505 1173.61 300.153 1174.72 302.207 1172.15C304.257 1169.57 301.933 1164.31 297.017 1160.39Z" fill="white"/>
<path d="M447.247 210.347L378.871 141.973H447.247V210.347Z" fill="#FFBF0D"/>
<path d="M577.477 1269.47L579.045 1304.83H607.788C607.788 1304.83 609.412 1300.45 611.845 1300.45C613.89 1300.45 616.548 1304.83 619.338 1304.83C625.396 1304.83 632.094 1304.83 634.78 1304.83C640.177 1304.83 692.545 1304.83 692.545 1304.83C692.545 1304.83 693.848 1298.28 692.254 1296.03C691.434 1294.88 686.624 1292.87 683.426 1291.88C668.546 1287.25 626.014 1272.87 618.6 1257.17C609.621 1238.11 577.477 1269.47 577.477 1269.47Z" fill="#4E99FF"/>
<path d="M692.792 1297.41C693.437 1300.23 692.545 1304.83 692.545 1304.83C692.545 1304.83 640.177 1304.83 634.78 1304.83C632.094 1304.83 625.396 1304.83 619.338 1304.83C616.548 1304.83 613.89 1300.45 611.845 1300.45C609.412 1300.45 607.788 1304.83 607.788 1304.83H579.045L577.754 1297.41H692.792Z" fill="#D8E5ED"/>
<path d="M639.489 1283.57C640.12 1284.51 641.751 1283.43 643.952 1281.61C649.197 1277.17 648.704 1277.67 647.351 1276.92C646.411 1276.44 645.293 1275.92 642.271 1278.6C640.145 1280.45 638.849 1282.64 639.489 1283.57Z" fill="#D8E5ED"/>
<path d="M631.682 1279.79C632.328 1280.73 633.99 1279.67 636.164 1277.84C641.416 1273.41 640.917 1273.89 639.577 1273.17C638.617 1272.65 637.509 1272.15 634.485 1274.81C632.335 1276.68 631.058 1278.87 631.682 1279.79Z" fill="#D8E5ED"/>
<path d="M624.556 1275.51C625.178 1276.44 626.853 1275.39 629.004 1273.53C634.249 1269.12 633.781 1269.57 632.417 1268.87C631.494 1268.37 630.362 1267.84 627.329 1270.53C625.2 1272.39 623.916 1274.57 624.556 1275.51Z" fill="#D8E5ED"/>
<path d="M359.284 1305.12C357.134 1308.81 358.624 1317.43 358.624 1317.43C358.624 1317.43 402.898 1322.85 417.142 1319.17C420.846 1318.21 427.11 1314.69 432.988 1310.96C434 1310.33 435.756 1306.57 436.717 1305.93C438.494 1304.77 439.429 1306.75 440.952 1305.68C444.889 1302.93 447.662 1300.8 447.714 1300.52C451.612 1278.08 446.422 1269.07 446.422 1269.07C446.422 1269.07 418.053 1255.23 411.005 1264.85C394.373 1287.57 365.552 1294.43 359.284 1305.12Z" fill="#4E99FF"/>
<path d="M358.02 1309.91C371.677 1311.85 400.37 1315.72 405.666 1314.64C427.285 1310.33 440.205 1297.77 448.977 1290.04C448.761 1293.17 448.396 1296.61 447.714 1300.52C447.662 1300.8 444.889 1302.93 440.952 1305.68C439.429 1306.75 438.494 1304.77 436.717 1305.93C435.756 1306.57 434 1310.33 432.988 1310.96C427.11 1314.69 420.846 1318.21 417.142 1319.17C402.898 1322.85 358.624 1317.43 358.624 1317.43C358.624 1317.43 357.824 1313.52 358.02 1309.91Z" fill="#D8E5ED"/>
<path d="M382.105 1288.64C381.909 1289.59 383.735 1290.12 386.224 1289.99C391.245 1289.71 396.344 1289.99 401.457 1290.81C403.979 1291.21 406.128 1290.85 406.235 1289.84C406.317 1288.79 404.391 1287.49 401.887 1287.11C396.849 1286.35 391.78 1286.13 386.844 1286.45C384.397 1286.61 382.307 1287.67 382.105 1288.64Z" fill="#D8E5ED"/>
<path d="M390.613 1281.99C390.472 1282.96 392.337 1283.68 394.79 1283.79C399.75 1284 404.801 1284.73 409.818 1286.04C412.316 1286.65 414.414 1286.48 414.474 1285.41C414.548 1284.36 412.605 1282.83 410.158 1282.21C405.178 1281 400.194 1280.31 395.29 1280.17C392.861 1280.11 390.777 1281 390.613 1281.99Z" fill="#D8E5ED"/>
<path d="M398.902 1275.87C398.772 1276.89 400.646 1277.84 403.076 1278.16C408.012 1278.81 412.972 1280.01 417.884 1281.75C420.336 1282.6 422.369 1282.56 422.414 1281.47C422.472 1280.36 420.556 1278.65 418.149 1277.83C413.256 1276.15 408.34 1275.03 403.469 1274.43C401.072 1274.13 399.022 1274.88 398.902 1275.87Z" fill="#D8E5ED"/>
<path d="M655.777 418.22L651.117 390.987L649.501 375.387L650.417 354.413C650.417 354.413 656.805 346.053 659.706 365.96C660.148 368.947 664.414 345.533 664.414 345.533L669.262 329.413L675.158 326.973L688.437 335.267C688.437 335.267 687.2 342.667 676.396 338.947C675.254 338.533 674.622 352.44 674.622 352.44L688.78 373.027C688.78 373.027 691.534 383.787 687.305 388.533C683.073 393.253 683.073 393.253 683.073 393.253L681.353 391.387L680.309 412.124C680.309 412.124 678.597 420.299 671.657 423.673C664.718 427.041 668.698 434.813 668.698 434.813L655.777 418.22Z" fill="#E9D6B8"/>
<path d="M627.557 576.005C627.557 576.005 599.819 520.313 606.581 499.849C613.405 479.407 642.283 404.313 642.283 404.313L677.952 423.801C677.952 423.801 652.679 571.416 644.665 581.415C636.639 591.395 629.705 579.128 627.557 576.005Z" fill="#0095EF"/>
<path d="M634.52 1267.61L575.796 1269.56L590.029 654.563L714.615 617.224C714.615 617.224 695.044 1018.08 634.52 1267.61Z" fill="#163F59"/>
<path d="M541.977 666.352L388.489 1279.48L457.875 1281.44L684.361 629.031L541.977 666.352Z" fill="#194866"/>
<path d="M589.933 658.704L599.889 651.619L714.615 617.224C714.615 617.224 712.624 657.955 707.967 721.525L586.856 791.455L589.933 658.704Z" fill="#194866"/>
<path d="M541.409 668.472L541.977 666.352L611.673 648.08L714.615 617.224C714.615 617.224 714.261 624.492 713.511 637.668L541.409 668.472Z" fill="#163F59"/>
<path d="M469.6 342.133C469.6 342.133 536.648 294.987 597.145 373.587C657.665 452.172 720.893 616.056 720.893 616.056L536.648 676.179L476.723 437.773C476.723 437.773 443.492 357.867 469.6 342.133Z" fill="#007FCB"/>
<path d="M469.006 345.414C469.006 345.414 448.25 343.467 457.142 406.324C466.041 469.202 487.992 591.685 498.078 622.481C500.561 630.097 510.54 665.699 526.549 644.084C542.564 622.481 553.244 539.277 525.969 431.876C508.473 363 479.68 345.414 469.006 345.414Z" fill="#0095EF"/>
<path d="M707.473 450.148L710.899 454.188L697.569 496.148L670.84 504.113L664.673 498.419L674.869 460.74L707.473 450.148Z" fill="#161711"/>
<path d="M615.347 505.788L654.392 483.127L669.812 480.845L665.717 494.464L681.1 500.144L696.508 494.464L703.733 484.261L706.799 495.58C706.799 495.58 705.775 501.269 701.667 505.788C697.569 510.34 683.18 535.296 683.18 535.296L671.849 533.043L646.176 526.228L629.736 538.676L615.347 505.788Z" fill="#E9D6B8"/>
<path d="M508.745 633.608C508.745 633.608 517.042 570.733 533.68 558.928C550.282 547.155 614.358 506.541 614.358 506.541L632.158 545.847C632.158 545.847 531.297 646.701 519.434 649.332C507.564 651.941 508.745 637.537 508.745 633.608Z" fill="#0095EF"/>
<path d="M577.313 314.147C566.018 347.04 558.82 363.094 556.973 364.72C544.258 376.054 506.616 346.8 511.344 338.64C516.084 330.467 523.282 289.253 523.024 282.8C522.713 276.36 583.997 294.654 577.313 314.147Z" fill="#E9D6B8"/>
<path d="M556.419 290.507C545.427 285.787 534.335 282.507 528.117 281.787C527.607 292.787 527.404 303.72 527.889 311.067C529.255 331.48 544.701 342.413 554.256 350.733C556.323 352.52 559.065 354.053 562.095 355.387C564.685 349.867 569.185 337.827 577.313 314.147C580.353 305.293 569.313 296.667 556.419 290.507Z" fill="#E2C59C"/>
<path d="M608.312 225.747L604.412 320.147C604.412 320.147 603.496 342.533 594.574 345.013C585.713 347.453 562.246 343.907 552.689 335.627C543.145 327.32 527.65 316.373 526.316 295.947C524.957 275.48 529.134 227.147 529.134 227.147C529.134 227.147 536.908 211.76 567.186 223.933C597.442 236.08 608.312 225.747 608.312 225.747Z" fill="#E9D6B8"/>
<path d="M605.953 202.56C610.133 204.04 617.129 207.853 618.532 215.053C619.973 222.467 612.622 232.68 606.082 233.667C599.565 234.653 557.949 231.427 552.928 229.227C547.937 227 538.376 224.2 534.266 216.107C531.601 210.88 547.778 201.413 556.961 204.867C580.353 213.64 590.389 197 605.953 202.56Z" fill="#194866"/>
<path d="M544.914 217.493L543.228 258.307L539.076 279.6L534.138 279.227L525.11 278.467C525.11 278.467 512.632 221.213 526.878 215.96C541.081 210.747 544.24 214.227 544.914 217.493Z" fill="#194866"/>
<path d="M533.419 283.16C533.288 286.707 530.233 289.32 526.6 289.014L522.771 288.68C519.131 288.36 516.305 285.28 516.439 281.733L517.064 266.8C517.216 263.293 520.28 260.64 523.921 260.96L527.752 261.28C531.373 261.56 534.203 264.667 534.052 268.227L533.419 283.16Z" fill="#E9D6B8"/>
<path d="M555.072 216.253L539.715 213.253L532.464 257.813L547.824 260.853L555.072 216.253Z" fill="#163F59"/>
<path d="M549.544 250.267C551.805 236.347 563.864 227.08 576.49 229.573L588.258 231.907C600.885 234.387 605.802 247.04 603.546 260.987C601.26 274.907 589.201 284.16 576.59 281.667L568.269 280.027C555.66 277.52 547.281 264.187 549.544 250.267Z" fill="#E9D6B8"/>
<path d="M973.837 201.12C973.837 201.12 1000.67 155.133 1035.16 172.373C1069.65 189.627 1056.24 216.44 1077.32 224.107C1098.4 231.773 1163.55 212.627 1199.95 220.28C1236.36 227.947 1248.49 248.973 1249.77 272.013C1251.69 306.507 1208.27 352.493 1230.61 365.907C1288.11 400.4 1232.15 430.471 1198.04 446.389C1140.55 473.22 1043.42 451.099 1045.34 424.273C1047.25 397.44 1014.68 414.692 987.852 416.605C961.025 418.524 1034.63 330.627 1005.1 326.547C933.438 316.64 956.592 283.52 945.097 264.347C933.602 245.187 904.856 191.533 973.837 201.12Z" fill="#212957"/>
<path d="M1093.61 606.785L1123.55 664.7C1123.55 664.7 1144.49 742.527 1143.52 758.251C1143.48 758.761 1139.32 928.387 1161.63 974.787C1197.56 1049.52 1210.25 1256.79 1206.19 1273.71C1204.45 1280.92 1185.23 1284.33 1184.63 1282.33C1109.89 1036.59 1091.21 976.227 1091.21 976.227L1033.19 729.937L961.864 948.92C961.864 948.92 951.872 989.12 948.93 1002.09C937.448 1052.72 874.065 1202.32 854.08 1272.28C851.202 1282.33 829.65 1280.89 829.65 1280.89L891.445 971.907L911.561 865.56C911.561 865.56 961.917 641.956 969.71 597.407C977.509 552.861 1061.59 572.261 1093.61 606.785Z" fill="#0561FC"/>
<path d="M961.145 356.093C961.145 356.093 943.234 358.6 935.996 409.264C928.753 459.937 921.272 519.916 936.859 522.704C952.452 525.492 995.332 512.125 985.308 460.895C975.282 409.671 961.145 356.093 961.145 356.093Z" fill="#DD000B"/>
<path d="M1024.38 335.973C1041.63 354.653 1083.31 338.84 1083.31 338.84C1083.31 338.84 1069.95 545.537 1100.01 606.791C1130.08 668.04 965.259 606.791 965.259 606.791L973.052 476.488C973.052 476.488 958.668 363.813 957.555 358.253C956.441 352.68 1014.99 325.8 1024.38 335.973Z" fill="#FD2227"/>
<path d="M1068.21 346.747C1085.16 333.187 1095.52 332.373 1109.89 366.867C1142.03 443.995 1142.23 561.605 1110.04 568.644C1090.99 572.817 1084.97 561.964 1075.79 550.267C1066.6 538.573 1053.84 358.254 1068.21 346.747Z" fill="#DD000B"/>
<path d="M995.332 674.719L1033.19 730.404" stroke="white" stroke-width="1.34517" stroke-miterlimit="10"/>
<path d="M1087.76 637.969L1110.04 683.632L1123.4 757.135L1138.64 951.787L1206.19 1273.71" stroke="white" stroke-width="1.34517" stroke-miterlimit="10"/>
<path d="M1068.83 651.337C1068.83 651.337 1067.71 674.719 1110.04 683.632" stroke="white" stroke-width="1.34517" stroke-miterlimit="10"/>
<path d="M868.726 282.28C873.214 269.613 880.389 258.427 880.389 258.427C880.389 258.427 881.453 262.747 879.118 271.027C876.4 280.627 870.357 294.667 872.902 300.627C877.412 311.067 875.924 313 878.034 306.84C880.129 300.653 877.04 290.827 886.424 280.107C886.524 280 884.189 294.187 884.117 307.6C884.033 319.2 877.137 333.973 882.152 357.293C898.568 388.213 922.318 433.044 935.508 470.243C949.666 510.18 954.661 522.328 941.317 523.541C913.753 526.048 901.148 493.016 897.05 477.607C889.394 448.837 873.798 360.813 873.798 360.813C873.726 360.667 873.654 360.52 873.578 360.373C866.804 346.64 860.398 326.293 860.44 319.093C860.448 315.16 863.332 297.573 868.726 282.28Z" fill="#F7B68B"/>
<path d="M861.54 320.493C861.54 320.493 858.808 295.653 860.168 290.667C861.112 287.173 868.233 271.547 868.233 271.547C868.233 271.547 869.99 280.6 867.48 287.04C864.98 293.48 861.54 320.493 861.54 320.493Z" fill="#F7B68B"/>
<path d="M921.277 499.353C922.5 502.703 926.197 506.453 929.552 506.453H978.063C981.413 506.453 983.141 502.703 981.92 499.353L950.471 411.443C949.248 408.089 945.544 403.893 942.197 403.893H893.683C890.332 403.893 888.603 408.089 889.824 411.443L921.277 499.353Z" fill="#194866"/>
<path d="M956.349 439.184C956.349 439.184 963.032 450.875 958.579 451.988C954.12 453.101 926.28 437.511 926.28 437.511L917.374 436.393L939.225 453.796C940.896 454.631 925.073 443.577 916.681 440.015C911.86 437.968 908.568 439.028 907.349 438.625C904.009 437.511 936.168 458.668 936.168 458.668L922.52 454.217C922.52 454.217 915.148 452.541 918.761 456.723C920.735 458.999 923.777 459.503 927.952 465.352C932.126 471.203 951.895 488.484 971.8 490.971C981.825 492.221 988.511 497.644 988.511 497.644L1082.47 558.623C1082.47 558.623 1125.91 566.137 1120.89 541.916C1115.88 517.696 1033.61 492.221 1003.96 482.616C984.48 476.305 983.075 470.921 978.904 466.743C974.727 462.565 966.931 444.748 956.349 439.184Z" fill="#F7B68B"/>
<path d="M983.421 296.92C983.421 296.92 1000.67 333.333 979.592 352.493C958.512 371.653 1001.99 384.12 1010.73 384.12C1036.6 384.12 1046.65 344.587 1046.65 344.587C1046.65 344.587 1029.41 344.827 1027.97 329.507C1024.97 297.52 1016.95 266.267 1016.95 266.267L983.421 296.92Z" fill="#F7B68B"/>
<path d="M983.421 296.92L1016.95 266.267C1016.95 266.267 1022.63 288.44 1026.22 314.533C1024.03 325.187 1021.07 328.707 1014.08 337.12C1007.89 344.573 998.917 339.973 989.859 330.547C991.379 313.747 983.421 296.92 983.421 296.92Z" fill="#EC9568"/>
<path d="M1030.37 272.013C1031.54 262.493 1031.81 256.213 1010.73 244.707C989.652 233.213 996.837 216.453 985.34 227.947C973.837 239.44 962.343 241.36 962.343 241.36C962.343 241.36 954.679 268.187 968.093 287.347C981.507 306.507 1002.58 329.507 1014.08 318C1025.57 306.507 1026.18 306.04 1030.37 272.013Z" fill="#F7B68B"/>
<path d="M846.086 1266.65C839.096 1263.95 838.446 1258.56 838.92 1253.51C839.398 1248.49 835.996 1247.41 830.646 1248.85C825.301 1250.27 790.001 1257.31 786.046 1255.55C782.078 1253.77 772.817 1251.39 768.388 1254.65C768.17 1254.81 767.982 1255 767.809 1255.2C767.76 1260.51 771.921 1268.8 777.905 1272.93C785.988 1278.51 804.281 1282.75 818.352 1282.61C832.413 1282.48 843.376 1287.45 847.618 1287.77C848.666 1287.84 849.532 1287.59 850.286 1287.11C851.132 1285.67 851.908 1284.07 852.808 1282.76C855.162 1279.36 859.528 1269.32 859.528 1269.32C859.528 1269.32 853.065 1269.37 846.086 1266.65Z" fill="#212957"/>
<path d="M1214.32 1279.67C1219.84 1273.44 1219.05 1266.75 1216.51 1262.41C1215.67 1261.51 1214.83 1260.44 1214.03 1259.31C1212.08 1257.39 1210.03 1254.39 1208.44 1251.83C1207.15 1255.47 1202.61 1268.03 1200.93 1270.19C1198.95 1272.71 1193.19 1274.56 1192.93 1268.96C1192.92 1268.95 1192.91 1268.92 1192.91 1268.92C1191.33 1268.87 1190 1267.91 1189.85 1265.32C1185.85 1263.59 1179.16 1264.17 1177.87 1266.28C1175.99 1269.29 1161.32 1294.85 1155.73 1301.81C1150.15 1308.79 1136.91 1320.63 1135.35 1327.17C1134.97 1328.79 1135.27 1330.45 1136.05 1332.01C1139.39 1334.76 1144.32 1336.33 1148.89 1335.07C1154.21 1333.59 1177.19 1323.84 1185.04 1313.25C1192.88 1302.68 1207.37 1287.45 1214.32 1279.67Z" fill="#212957"/>
<path d="M1411.68 1286.77C1409.24 1289.99 1410.4 1298.81 1410.4 1298.81C1410.4 1298.81 1449.96 1305.87 1462.99 1302.8C1466.36 1302 1472.21 1298.77 1477.72 1295.36C1478.63 1294.79 1480.43 1291.16 1481.33 1290.59C1483 1289.49 1483.72 1291.47 1485.15 1290.49C1488.87 1287.96 1491.49 1285.97 1491.53 1285.71C1496.28 1263.84 1492.12 1254.8 1492.12 1254.8C1492.12 1254.8 1458.95 1239.76 1452.05 1248.92C1435.81 1270.57 1417.08 1279.71 1411.68 1286.77Z" fill="#161711"/>
<path d="M1523.23 926.4C1523.23 926.4 1510.47 1039.03 1509.37 1088.29C1508.56 1125.43 1502.8 1217.47 1493.17 1256.67C1487.51 1279.72 1428.73 1263.05 1428.73 1263.05C1428.73 1263.05 1445.63 988.36 1442.49 950.133C1439.39 911.88 1447.91 900.467 1523.23 926.4Z" fill="#003E99"/>
<path d="M1640.97 226.96C1640.97 226.96 1663.77 208.453 1664.72 188.507C1665.67 168.56 1682.29 158.12 1659.03 138.653C1635.76 119.173 1625.79 129.627 1633.85 139.12C1641.93 148.613 1672.8 146.24 1662.35 125.347C1647.25 95.1735 1612.96 83.5601 1611.55 112.053C1610.12 140.547 1622.93 141.493 1621.51 124.88C1620.09 108.253 1608.69 90.6935 1598.24 100.187C1587.8 109.68 1597.29 119.173 1602.52 120.133C1607.75 121.08 1598.24 93.0667 1579.72 95.44C1561.21 97.8134 1539.84 106.36 1544.11 134.84C1548.39 163.333 1555.04 147.667 1555.51 138.173C1555.99 128.68 1537.47 114.907 1534.61 134.84C1531.77 154.787 1533.19 164.76 1536.99 180.427C1540.79 196.107 1558.36 217.947 1577.83 209.867C1597.29 201.8 1640.97 226.96 1640.97 226.96Z" fill="#212957"/>
<path d="M1691.79 665.783C1691.79 665.783 1689.89 759.469 1680.39 816.279C1670.89 873.093 1653.8 936.88 1654.75 942.853C1655.71 948.84 1639.56 958.8 1610.12 955.813C1580.68 952.827 1570.55 935.88 1570.55 935.88C1570.55 935.88 1561.68 730.564 1565.48 701.663C1569.28 672.76 1632.91 634.887 1691.79 665.783Z" fill="#003E99"/>
<path d="M1446.77 656.695C1444.07 657.592 1440.6 849.48 1441.55 869.413C1442.49 889.36 1442.97 945.387 1442.97 945.387C1442.97 945.387 1446.77 960.587 1464.81 957.733C1482.87 954.893 1519.89 940.64 1519.89 940.64C1519.89 940.64 1574.03 741.213 1580.68 694.68C1587.32 648.145 1452.47 654.793 1446.77 656.695Z" fill="#003E99"/>
<path d="M1571.17 311.96C1571.17 311.96 1605.37 321.453 1617.71 316.707C1630.05 311.96 1621.51 349 1631.96 405.029C1642.4 461.057 1674.69 618.705 1673.75 644.347C1672.8 669.987 1624.36 680.431 1580.68 680.431C1536.99 680.431 1525.6 682.332 1535.09 635.799C1544.59 589.263 1571.17 311.96 1571.17 311.96Z" fill="#0561FC"/>
<path d="M1570.09 1249.04L1572.01 1281.15L1603.96 1285.31C1603.96 1285.31 1606.33 1281.11 1609.03 1281.45C1611.32 1281.75 1613.68 1286.57 1616.76 1286.97C1623.49 1287.88 1630.95 1288.83 1633.92 1289.23C1639.93 1290.01 1698.07 1297.59 1698.07 1297.59C1698.07 1297.59 1700.37 1291.19 1698.91 1288.68C1698.16 1287.41 1693.08 1284.67 1689.64 1283.21C1673.72 1276.43 1628.39 1255.77 1622.23 1238.92C1614.73 1218.43 1570.09 1249.04 1570.09 1249.04Z" fill="#161711"/>
<path d="M1620.52 942.213C1620.52 942.213 1621.03 900.453 1576.15 903.667C1559.92 904.827 1565.31 1258.49 1565.31 1258.49L1632.43 1241.67L1655.55 926.84L1620.52 942.213Z" fill="#003E99"/>
<path d="M1523.69 253.08C1519.89 254.973 1424.93 291.067 1424.93 291.067C1424.93 291.067 1447.72 306.267 1446.77 365.147C1445.83 424.021 1442.03 518.989 1438.23 549.377C1434.43 579.767 1425.88 648.141 1425.88 648.141C1425.88 648.141 1545.48 704.175 1578.77 704.175C1579.72 704.175 1577.83 690.877 1577.83 690.877C1577.83 690.877 1584.48 370.84 1586.37 350.893C1588.27 330.96 1552.19 280.627 1547.44 272.067C1542.69 263.52 1523.69 253.08 1523.69 253.08Z" fill="#EAF4FE"/>
<path d="M1541.73 236.933C1540.79 239.787 1555.99 283.467 1565.48 293.92C1574.97 304.36 1542.69 316.707 1542.69 316.707L1518 254.973L1541.73 236.933Z" fill="#C5E1F9"/>
<path d="M1424.93 291.067C1424.93 291.067 1391.69 327.16 1381.24 375.587C1370.8 424.021 1368.89 443.013 1368.89 452.511C1368.89 462.009 1369.85 476.255 1369.85 476.255L1378.4 516.14C1378.4 516.14 1386.95 467.708 1414.48 462.009C1442.03 456.312 1449.63 451.561 1449.63 451.561C1449.63 451.561 1452.47 349.947 1447.72 330.96C1442.97 311.96 1424.93 291.067 1424.93 291.067Z" fill="#C5E1F9"/>
<path d="M1629.11 269.227L1691.79 310.067C1691.79 310.067 1701.28 446.813 1700.33 498.095C1699.39 549.377 1705.08 685.18 1705.08 685.18L1658.55 708.921C1658.55 708.921 1626.27 462.957 1626.27 458.209C1626.27 453.463 1601.57 347.093 1608.21 334.747C1614.87 322.413 1620.56 311.013 1621.51 304.36C1622.47 297.72 1629.11 269.227 1629.11 269.227Z" fill="#EAF4FE"/>
<path d="M1632.91 260.68L1640.51 291.067L1637.65 323.36L1626.27 303.413L1617.71 316.707C1617.71 316.707 1616.76 276.827 1632.91 260.68Z" fill="#C5E1F9"/>
<path d="M1693.68 311.96C1693.68 311.96 1725.97 382.24 1733.57 438.267C1741.17 494.296 1738.32 506.641 1738.32 506.641V517.088C1738.32 517.088 1696.53 528.484 1695.59 531.333C1694.64 534.183 1695.59 388.88 1693.68 369.893C1691.79 350.893 1687.04 326.2 1687.04 326.2" fill="#C5E1F9"/>
<path d="M1741.64 759.968L1725.03 764.716L1707.69 763.292C1707.69 763.292 1706.51 756.641 1712.92 755.695C1719.33 754.745 1722.17 754.269 1726.21 754.032C1729.53 753.835 1739.99 751.419 1741.17 751.896C1742.36 752.368 1741.64 759.968 1741.64 759.968Z" fill="#E9AB86"/>
<path d="M1744.68 752.569L1727.95 756.887L1710.65 755.015C1710.65 755.015 1709.64 748.336 1716.08 747.555C1722.51 746.771 1725.37 746.369 1729.41 746.237C1732.73 746.125 1743.24 743.983 1744.41 744.487C1745.59 744.992 1744.68 752.569 1744.68 752.569Z" fill="#E9AB86"/>
<path d="M1750.85 744.972L1734.12 749.289L1716.83 747.417C1716.83 747.417 1715.81 740.74 1722.24 739.957C1728.68 739.176 1731.53 738.773 1735.59 738.64C1738.91 738.528 1749.41 736.385 1750.59 736.889C1751.76 737.395 1750.85 744.972 1750.85 744.972Z" fill="#E9AB86"/>
<path d="M1695.59 531.333C1695.59 531.333 1695.59 576.919 1709.83 620.604C1724.08 664.289 1725.97 678.533 1725.97 678.533C1725.97 678.533 1746.87 682.335 1749.72 676.637C1752.56 670.939 1750.67 655.743 1750.67 646.245C1750.67 636.751 1752.56 528.488 1735.47 513.292C1718.37 498.096 1695.59 531.333 1695.59 531.333Z" fill="#F0BF97"/>
<path d="M1747.81 673.308C1750.68 675.54 1765.63 719.605 1766.33 725.304C1767.05 731.001 1751.85 756.881 1750.43 759.731C1749 762.58 1731.43 769.239 1729.29 769.463C1724.79 769.939 1713.63 769.463 1713.63 769.463C1713.63 769.463 1711.73 763.764 1723.6 761.628C1729.25 760.612 1732.15 760.443 1732.15 760.443L1742.36 747.859L1742.83 733.139C1742.83 733.139 1732.85 711.771 1737.13 704.648C1741.4 697.525 1741.4 668.323 1747.81 673.308Z" fill="#F0BF97"/>
<path d="M1726.69 676.635C1725.93 677.549 1718.85 698.476 1720.28 710.584C1721.71 722.695 1722.65 736.227 1722.65 736.939C1722.65 737.651 1721.71 752.131 1723.36 755.929C1725.03 759.731 1729.53 760.677 1731.91 758.779C1734.28 756.881 1735.95 750.232 1735.95 744.773C1735.95 739.311 1734.05 719.367 1738.08 721.029C1742.12 722.695 1741.64 714.383 1744.01 705.836C1746.39 697.289 1749.72 685.181 1748.53 681.62C1747.35 678.059 1733.33 668.563 1726.69 676.635Z" fill="#F0BF97"/>
<path d="M1584.95 324.773C1584.95 324.773 1564.53 319.08 1557.41 290.587C1550.28 262.107 1537.95 251.173 1541.27 239.307C1544.59 227.44 1542.69 218.413 1546.96 223.16C1551.24 227.92 1570.71 273.493 1591.6 273.027C1612.49 272.547 1621.99 265.907 1621.99 265.907C1621.99 265.907 1623.89 275.4 1624.84 283.947C1625.79 292.493 1625.79 323.827 1619.13 325.253C1612.49 326.68 1584.95 324.773 1584.95 324.773Z" fill="#F0BF97"/>
<path d="M1612.96 282.04C1610.12 283 1603 298.667 1596.35 301.04C1589.69 303.413 1580.68 304.84 1570.23 290.587C1559.79 276.347 1552.19 269.227 1548.39 254.027C1544.59 238.84 1545.53 220.32 1549.33 216.04C1553.13 211.773 1551.71 196.573 1572.6 216.52C1593.49 236.467 1612.96 282.04 1612.96 282.04Z" fill="#E9AB86"/>
<path d="M1574.03 172.36C1572.76 173.16 1569.28 181.373 1561.68 186.6C1554.08 191.827 1549.33 195.147 1548.39 204.653C1547.44 214.147 1564.53 270.653 1578.77 283.947C1593.03 297.24 1605.84 291.547 1608.21 291.547C1610.59 291.547 1640.99 249.28 1647.63 227.92C1654.28 206.547 1658.55 184.707 1650.48 180.427C1642.4 176.16 1596.35 158.107 1574.03 172.36Z" fill="#F0BF97"/>
<path d="M1550.28 200.373C1550.28 200.373 1550.76 179.96 1544.59 176.627C1538.41 173.307 1532.24 168.08 1532.24 176.16C1532.24 184.227 1535.09 200.373 1540.32 208.92C1545.53 217.467 1541.73 221.747 1546.96 223.16C1552.19 224.587 1549.81 207.493 1550.28 200.373Z" fill="#F0BF97"/>
<path d="M1538.33 431.591C1540.24 430.592 1555.52 417.019 1559.79 414.761C1563.81 412.625 1581.63 402.173 1586.13 403.6C1594.36 406.2 1595.45 406.215 1595.45 406.215C1595.45 406.215 1604.56 411.041 1604.01 413.199C1602.83 417.933 1582.83 413.329 1585.45 422.404C1587.83 430.632 1538.33 431.591 1538.33 431.591Z" fill="#F0BF97"/>
<path d="M1630.84 447.7C1629.49 451.407 1625.4 454.411 1621.69 454.411H1584.79C1581.08 454.411 1579.17 451.407 1580.52 447.7L1600.87 391.787C1602.23 388.093 1606.32 385.08 1610.03 385.08H1646.92C1650.63 385.08 1652.53 388.093 1651.19 391.787L1630.84 447.7Z" fill="#212957"/>
<path d="M1593.97 443.013C1593.97 443.013 1639.79 440.879 1641.69 440.879C1643.59 440.879 1649.05 442.54 1644.31 445.863C1639.56 449.187 1622.47 453.936 1613.44 455.36C1604.41 456.784 1589.69 456.784 1589.69 456.784L1593.97 443.013Z" fill="#E9AB86"/>
<path d="M1593.97 467.705C1593.97 467.705 1608.81 463.863 1610.59 463.195C1614.39 461.771 1636 451.327 1619.37 451.799C1602.76 452.273 1598.24 454.884 1594.44 462.007C1590.65 469.129 1593.97 467.705 1593.97 467.705Z" fill="#E9AB86"/>
<path d="M1416.39 457.733C1416.39 457.733 1391.21 476.016 1388.37 483.375C1382.89 497.524 1376.97 510.44 1379.83 521.361C1382.67 532.283 1385.04 541.779 1393.59 541.305C1402.13 540.831 1535.09 475.779 1543.64 471.029C1552.19 466.28 1574.03 469.129 1574.03 469.129C1574.03 469.129 1583.61 468.169 1593.03 467.231C1597.77 466.756 1599.19 455.835 1599.67 451.561C1600.15 447.288 1585.43 415.001 1575.93 414.049C1566.43 413.1 1542.21 425.92 1521.8 434.467C1516.19 436.816 1426.36 457.257 1416.39 457.733Z" fill="#F0BF97"/>
<path d="M1584.48 422.359C1584.48 422.359 1613.01 418.415 1619.61 417.611C1629.35 416.425 1633.39 419.511 1633.85 422.36C1634.33 425.209 1634.33 425.445 1625.79 427.107C1619.19 428.389 1595.87 435.179 1589.23 435.179C1582.57 435.179 1584.48 422.359 1584.48 422.359Z" fill="#F0BF97"/>
<path d="M1587.56 433.52C1587.56 433.52 1615.81 430.671 1626.03 430.195C1630.32 429.995 1640.03 430.195 1641.45 431.144C1643.23 432.32 1647.87 433.993 1645.01 437.793C1642.16 441.591 1597.05 447.292 1592.31 448.239" fill="#F0BF97"/>
<path d="M669.469 50.8267C669.469 76.7867 648.422 97.8267 622.461 97.8267C596.497 97.8267 575.452 76.7867 575.452 50.8267C575.452 24.8667 596.497 3.81337 622.461 3.81337C648.422 3.81337 669.469 24.8667 669.469 50.8267Z" fill="#4E99FF"/>
<path d="M643.828 73.5868V67.8934C643.828 61.6001 638.725 56.4934 632.432 56.4934H612.489C606.195 56.4934 601.093 61.6001 601.093 67.8934V73.5868H643.828Z" fill="white"/>
<path d="M632.432 37.9868C632.432 32.4801 627.967 28.0134 622.461 28.0134C616.952 28.0134 612.489 32.4801 612.489 37.9868C612.489 43.4934 616.952 47.9468 622.461 47.9468C627.967 47.9468 632.432 43.4934 632.432 37.9868Z" fill="white"/>
<path d="M674.217 19.2399C674.217 29.3333 666.033 37.52 655.939 37.52C645.841 37.52 637.657 29.3333 637.657 19.2399C637.657 9.14661 645.841 0.959996 655.939 0.959996C666.033 0.959996 674.217 9.14661 674.217 19.2399Z" fill="#FF5931"/>
<path d="M323.08 170.227C316.605 170.227 311.352 164.987 311.352 158.507V56.8667C311.352 50.3867 316.605 45.1333 323.08 45.1333H471.63C478.106 45.1333 483.357 50.3867 483.357 56.8667V158.507C483.357 164.987 478.106 170.227 471.63 170.227H323.08Z" fill="#FFBF0D"/>
<path d="M323.08 170.227C316.605 170.227 311.352 164.987 311.352 158.507V56.8667C311.352 50.3867 316.605 45.1333 323.08 45.1333H471.63C478.106 45.1333 483.357 50.3867 483.357 56.8667V158.507C483.357 164.987 478.106 170.227 471.63 170.227H323.08Z" fill="#FFBF0D"/>
<path d="M471.63 45.1333H323.08C316.605 45.1333 311.352 50.3867 311.352 56.8667V63.0134L447.82 170.227H471.63C478.106 170.227 483.357 164.987 483.357 158.507V56.8667C483.357 50.3867 478.106 45.1333 471.63 45.1333Z" fill="#F3AA06"/>
<path d="M397.354 123.32L483.357 63.4935V56.8668C483.357 50.3868 478.106 45.1335 471.63 45.1335H323.08C316.605 45.1335 311.352 50.3868 311.352 56.8668V63.4935L397.354 123.32Z" fill="#FECE40"/>
<path d="M1697.96 218.747C1697.96 223.707 1701.99 227.733 1706.96 227.733H1712.95V248.733L1733.95 227.733H1802.92C1807.89 227.733 1811.92 223.707 1811.92 218.747V143.773C1811.92 138.8 1807.89 134.773 1802.92 134.773H1706.96C1701.99 134.773 1697.96 138.8 1697.96 143.773V218.747Z" fill="#9FC400"/>
<path d="M1715.95 167.76H1793.93V161.76H1715.95V167.76Z" fill="white"/>
<path d="M1715.95 182.76H1793.93V176.76H1715.95V182.76Z" fill="white"/>
<path d="M1715.95 197.747H1793.93V191.747H1715.95V197.747Z" fill="white"/>
<path d="M2068.85 218.747C2068.85 223.707 2072.88 227.733 2077.85 227.733H2083.85V248.733L2104.84 227.733H2173.81C2178.79 227.733 2182.81 223.707 2182.81 218.747V143.773C2182.81 138.8 2178.79 134.773 2173.81 134.773H2077.85C2072.88 134.773 2068.85 138.8 2068.85 143.773V218.747Z" fill="#FEC12F"/>
<path d="M1873.67 108.6H1808.01V41.3067H1873.67V108.6Z" fill="#2B83FD"/>
<path d="M1854.43 68.4667H1843.15C1843.71 67.2 1844.35 65.6267 1844.51 64.8267C1844.65 64.0134 1844.51 62.0667 1844.51 62.0667C1844.51 60.6134 1843.32 59.4267 1841.85 59.4267H1840.53V63.5067C1840.53 63.5067 1835.91 68.9067 1835.91 71.1067V84C1835.91 85.4534 1837.09 86.64 1838.56 86.64H1847.81C1849.27 86.64 1850.88 85.4534 1851.41 84L1856.11 71.1067C1856.64 69.64 1855.88 68.4667 1854.43 68.4667Z" fill="white"/>
<path d="M1837.56 84.9868H1834.04V70.5601H1837.56V84.9868Z" fill="white"/>
<path d="M1823.69 86.64H1829.97V68.4667H1823.69V86.64Z" fill="white"/>
<path d="M1490.03 184.707C1490.03 189.68 1486 193.707 1481.03 193.707H1475.04V214.693L1454.04 193.707H1385.07C1380.09 193.707 1376.07 189.68 1376.07 184.707V109.733C1376.07 104.76 1380.09 100.733 1385.07 100.733H1481.03C1486 100.733 1490.03 104.76 1490.03 109.733V184.707Z" fill="#FF5931"/>
<path d="M922.136 173.547C922.136 179.347 917.428 184.053 911.621 184.053H904.617V208.587L880.088 184.053H799.498C793.69 184.053 788.986 179.347 788.986 173.547V85.9468C788.986 80.1335 793.69 75.4268 799.498 75.4268H911.621C917.428 75.4268 922.136 80.1335 922.136 85.9468V173.547Z" fill="#4E99FF"/>
<path d="M838.309 105.027V138.013C837.093 137.52 835.773 137.24 834.385 137.24C828.504 137.24 823.724 142.013 823.724 147.893C823.724 153.773 828.504 158.56 834.385 158.56C840.261 158.56 845.041 153.773 845.041 147.893V120.8L874.774 114.853V130.72C873.558 130.227 872.24 129.947 870.849 129.947C864.972 129.947 860.189 134.733 860.189 140.6C860.189 146.48 864.972 151.267 870.849 151.267C876.726 151.267 881.508 146.48 881.508 140.6V96.3867L838.309 105.027Z" fill="white"/>
<path d="M1451.12 130.627C1446.89 126.4 1440.05 126.4 1435.84 130.627L1433.29 133.173L1430.75 130.627C1426.53 126.4 1419.69 126.4 1415.47 130.627C1411.25 134.84 1411.25 141.68 1415.47 145.893L1418.01 148.453L1433.29 163.72L1448.56 148.453L1451.12 145.893C1455.33 141.667 1455.33 134.827 1451.12 130.627Z" fill="white"/>
<path d="M1085.81 150.813C1085.81 155.107 1089.05 158.587 1093.07 158.587H1107.12V187.747L1141.56 158.587H1212.2C1216.21 158.587 1219.47 155.107 1219.47 150.813V62.5733C1219.47 58.2666 1216.21 54.8 1212.2 54.8H1093.07C1089.05 54.8 1085.81 58.2666 1085.81 62.5733V150.813Z" fill="#FF3D0D"/>
<path d="M1177.59 106.28L1158.09 117.533L1138.59 128.787V83.7733L1158.09 95.0267L1177.59 106.28Z" fill="white"/>
<path d="M2125.84 153.453L2133.45 168.893L2150.49 171.373L2138.16 183.387L2141.08 200.36L2125.84 192.347L2110.59 200.36L2113.51 183.387L2101.17 171.373L2118.21 168.893L2125.84 153.453Z" fill="white"/>
<path d="M2304.64 215.64L2315.11 190.72L2335.2 187.547C2335.2 187.547 2334 193.533 2328.69 196.213C2323.39 198.88 2323.39 198.88 2323.39 198.88L2315.32 213.427L2304.64 215.64Z" fill="#E9AB86"/>
<path d="M2452.52 269.147C2452.52 269.147 2488.17 279.213 2525.25 310.427C2562.33 341.627 2517.36 405.777 2517.36 405.777L2481.83 655.997L2321.2 649.819L2315.01 404.231C2315.01 404.231 2298.35 421.804 2290.31 416.589C2275.69 407.113 2264.69 372.173 2257.67 372.293C2246.77 372.48 2278.73 242.427 2368.79 259.68C2458.85 276.947 2452.52 269.147 2452.52 269.147Z" fill="#0059B6"/>
<path d="M2296.36 233.667L2315.59 267.507L2368.6 208.853L2339.97 182.973L2296.36 233.667Z" fill="#163F59"/>
<path d="M2290.31 398.053C2290.31 398.053 2242.01 479.023 2185.45 487.016C2128.88 495.007 2237.41 351.4 2255.79 346.28C2274.17 341.16 2290.31 398.053 2290.31 398.053Z" fill="#E9AB86"/>
<path d="M2434.25 192.707C2434.25 192.707 2439.84 165.12 2440.21 153.173C2440.57 141.227 2431.15 133.427 2416.4 124.387C2401.64 115.347 2403.57 117.4 2408.09 115.24C2412.6 113.08 2399.6 106.853 2381.27 109.827C2362.93 112.8 2332.23 124.133 2344.72 156.707C2357.23 189.28 2425.08 221.867 2434.25 192.707Z" fill="#163F59"/>
<path d="M2453.21 264.88C2453.21 264.88 2440.73 261.6 2434.67 249.76C2428.59 237.92 2425.32 224.32 2429.55 216.48C2433.76 208.64 2444.87 181.52 2432.8 185.147C2420.72 188.76 2423.95 188.707 2420.43 193.507C2416.91 198.307 2417.03 194.32 2416.16 187.707C2415.28 181.08 2410.15 168.667 2404.4 165.733C2398.67 162.8 2403.43 142.24 2408.29 138.56C2413.16 134.867 2390.49 139.24 2375.51 138.173C2360.51 137.107 2354.59 134.933 2345.51 146.453C2336.41 157.987 2334 171.867 2334.63 186.453C2335.25 201.04 2345.12 234.613 2345.81 241.987C2346.51 249.373 2344.63 250.533 2356.81 253.36C2369 256.187 2363.49 255.72 2360.61 264.68C2357.73 273.64 2346.92 306.427 2376.25 314.827C2405.6 323.24 2434.41 318.28 2453.21 264.88Z" fill="#F0BF97"/>
<path d="M2346.35 234.693C2344.63 242.107 2220.23 456.011 2188.19 485.305C2171.83 500.271 2161.88 458.88 2166.24 433.316C2170.6 407.748 2289.12 269.107 2289.12 269.107L2287.04 234.24C2287.04 234.24 2281.28 232.12 2298.76 217.414C2316.24 202.694 2319.95 203.56 2319.95 203.56L2329.88 211.333L2333.8 224.747C2333.8 224.747 2321.03 242.067 2316.32 239.453C2311.47 236.773 2320.09 233.307 2314.51 230.44C2308.91 227.587 2303.6 230.253 2303.6 230.253L2311.85 258.747C2311.85 258.747 2317.15 266.227 2324.57 257.787C2332 249.347 2347.72 228.76 2346.35 234.693Z" fill="#F0BF97"/>
<path d="M2316.32 239.453C2311.47 236.773 2320.09 233.307 2314.51 230.44C2308.91 227.587 2303.6 230.253 2303.6 230.253L2311.85 258.747C2311.85 258.747 2317.15 266.227 2324.57 257.787C2332 249.347 2344.61 230.387 2343.24 236.32C2342.51 239.467 2322.67 278.347 2293.93 325.987C2297.43 310.253 2302.68 290.573 2306.92 283.4C2314.64 270.333 2307.27 271.76 2303.11 266.093C2298.95 260.44 2293.61 229.507 2293.61 229.507L2306.97 222.44C2306.97 222.44 2311.43 223.467 2317.71 223.36C2323.99 223.253 2329.88 211.333 2329.88 211.333L2333.8 224.747C2333.8 224.747 2321.03 242.067 2316.32 239.453Z" fill="#E9AB86"/>
<path d="M2418.69 225.2C2418.69 225.2 2406.49 243.227 2399 247.893C2391.49 252.573 2365.72 253.027 2356.81 253.36C2347.91 253.707 2359.63 251.613 2378.01 262.293C2396.39 272.96 2419.28 291.907 2421.39 282.773C2423.51 273.64 2427.01 256.8 2425.37 250C2423.75 243.213 2418.69 225.2 2418.69 225.2Z" fill="#E9AB86"/>
<path d="M2346.95 1218.15C2346.95 1218.15 2346.16 1227.6 2346.95 1231.53C2347.73 1235.47 2342.23 1248.07 2339.08 1252.01C2335.92 1255.95 2335.13 1250.44 2335.13 1250.44C2335.13 1250.44 2329.63 1259.09 2328.84 1263.83C2328.05 1268.55 2313.09 1289.81 2304.43 1297.69C2295.76 1305.56 2287.09 1309.51 2287.09 1309.51C2287.09 1309.51 2278.43 1313.44 2286.31 1289.81C2288.84 1282.19 2294.17 1265.69 2298.12 1258.31C2304.43 1246.49 2324.91 1206.33 2346.95 1218.15Z" fill="#161711"/>
<path d="M2379.08 1267.45C2379.08 1267.45 2376.21 1271.85 2374.37 1281.15C2372.15 1292.4 2370.57 1303.29 2370.57 1303.29C2370.57 1303.29 2368.12 1314.89 2374.67 1318.09C2381.2 1321.31 2401.17 1304.79 2405.97 1298.24C2410.77 1291.71 2420.87 1266.79 2426.95 1258.03C2433.01 1249.27 2422.83 1227.75 2410.75 1236.92C2398.67 1246.12 2384.17 1258.57 2379.08 1267.45Z" fill="#161711"/>
<path d="M2359.55 663.691C2359.55 663.691 2405.63 803.088 2407.99 858.613C2410.35 914.133 2399.72 994.48 2400.89 1003.92C2402.08 1013.37 2370.19 1263.83 2370.19 1263.83L2385.55 1282.72C2385.55 1282.72 2439.88 1254.37 2442.25 1246.11C2444.61 1237.84 2458.79 1074.8 2463.51 1045.27C2468.24 1015.73 2475.32 959.027 2475.32 943.667C2475.32 928.32 2514.31 713.308 2496.59 667.232C2478.87 621.159 2397.36 640.061 2397.36 640.061L2361.92 641.244L2359.55 663.691Z" fill="#163F59"/>
<path d="M2413.89 694.404C2413.89 694.404 2337.11 960.213 2335.92 977.933C2334.75 995.653 2356.01 1216.57 2356.01 1216.57L2304.03 1254.37L2272.13 995.653C2272.13 995.653 2270.95 966.12 2274.49 935.4C2278.04 904.693 2322.93 643.603 2322.93 643.603L2385.55 642.423L2413.89 694.404Z" fill="#163F59"/>
<path d="M2562.79 400.52C2562.79 400.52 2604.24 533.647 2605.23 571.073C2606.23 608.523 2581.83 606.096 2560.73 591.331C2544.03 579.639 2516.35 485.495 2508.23 469.719C2500.08 453.927 2562.16 383.04 2562.79 400.52Z" fill="#E9AB86"/>
<path d="M2605.23 571.073C2604.24 533.647 2562.79 400.52 2562.79 400.52C2562.45 391.48 2545.68 406.104 2530.68 424.516C2537.55 418.779 2542.48 416.781 2542.65 421.656C2542.65 421.656 2584.11 554.777 2585.09 592.215C2585.28 599.071 2585.04 604.599 2584.4 609.095C2599.31 605.52 2605.99 600.351 2605.23 571.073Z" fill="#F0BF97"/>
<path d="M2550.99 575.383L2460.79 661.312C2460.79 661.312 2636.45 614.203 2596.67 583.929C2565.6 560.311 2550.99 575.383 2550.99 575.383Z" fill="#F0BF97"/>
<path d="M2482.61 299.653C2482.61 299.653 2522.04 279.347 2545.37 336.48C2559.31 370.587 2570.41 405.396 2578.95 436.296C2578.95 436.296 2509.99 505.732 2493.56 472.335C2488.81 462.68 2476.07 439.693 2472.96 429.263C2454.35 367.107 2482.61 299.653 2482.61 299.653Z" fill="#0059B6"/>
<path d="M2493.77 620.841C2486.71 622.667 2487.11 622.252 2487.11 622.252C2487.11 622.252 2487.07 631.784 2481.23 638.523C2478.31 641.875 2467.67 651.153 2467.67 651.153L2452.04 665.115L2444.29 671.008C2444.29 671.008 2439.64 674.019 2439.13 675.683C2437.64 680.528 2441.77 679.859 2441.77 679.859L2473.77 659.637L2449.11 686.476C2449.11 686.476 2446.51 690.459 2447.91 692.492C2449.21 694.381 2450.31 693.341 2450.31 693.341L2485.07 669.647L2473.85 684.929C2473.85 684.929 2471.4 688.877 2472.65 690.94C2474.04 693.185 2474.36 693.861 2474.36 693.861L2501.32 665.919C2501.32 665.919 2500.87 619.003 2493.77 620.841Z" fill="#F0BF97"/>
<path d="M2476.8 665.76L2460.51 685.676C2460.51 685.676 2456.39 689.704 2455.61 692.793C2454.72 696.337 2457.67 697.231 2457.67 697.231L2485.07 669.647L2476.8 665.76Z" fill="#F0BF97"/>
<path d="M2472.08 171.84C2472.08 179.8 2478.53 186.24 2486.48 186.24H2496.07V219.827L2529.67 186.24H2640.03C2647.99 186.24 2654.43 179.8 2654.43 171.84V51.8801C2654.43 43.9334 2647.99 37.4933 2640.03 37.4933H2486.48C2478.53 37.4933 2472.08 43.9334 2472.08 51.8801V171.84Z" fill="#7EB3FF"/>
<path d="M2500.88 90.2802H2625.64V80.6802H2500.88V90.2802Z" fill="white"/>
<path d="M2500.88 114.267H2625.64V104.667H2500.88V114.267Z" fill="white"/>
<path d="M2500.88 138.253H2625.64V128.653H2500.88V138.253Z" fill="white"/>
<path d="M1864.15 573.589C1864.15 573.589 1852.28 629.143 1854.17 666.656C1856.08 704.169 1876.49 839.497 1876.49 839.497L1886.95 873.213C1886.95 873.213 1924.45 868.467 1927.77 856.587C1931.11 844.719 1948.2 702.269 1948.2 702.269C1948.2 702.269 2041.27 778.719 2041.27 753.079C2041.27 727.437 2014.2 576.44 2014.2 576.44L1864.15 573.589Z" fill="#0561FC"/>
<path d="M2036.4 363.12C2036.4 363.12 2059.55 393.387 2060.97 432.565C2062.39 471.739 2058.12 503.435 2058.12 503.435L2053.13 527.057C2053.13 527.057 2020.01 514.473 2020.01 500.229C2020.01 485.984 2007.55 467.109 2008.61 440.756C2009.69 414.403 2026.43 359.92 2036.4 363.12Z" fill="#DD000B"/>
<path d="M1831.87 373.68L1908.41 343.133C1908.41 343.133 1905.63 340.92 1948.84 341.88C1979.13 342.533 2015.75 360.267 2018.95 356.707C2022.15 353.147 2036.4 363.12 2036.4 363.12C2036.4 363.12 2027.85 390.547 2021.44 408.705C2015.03 426.867 2011.09 472.261 2010.4 488.833C2009.33 514.473 2025 560.771 2032.12 572.167C2039.24 583.563 2046.37 587.836 2018.59 588.192C1990.81 588.548 1891.45 584.631 1881.48 583.207C1871.51 581.781 1861.19 575.372 1861.19 575.372C1861.19 575.372 1867.95 517.323 1868.67 500.585C1869.37 483.847 1831.87 373.68 1831.87 373.68Z" fill="#FD2227"/>
<path d="M1817.37 517.323C1817.37 517.323 1817.61 421.325 1819.87 411.555C1820.95 406.924 1831.99 373.093 1831.99 373.093C1831.99 373.093 1858.69 394.107 1861.53 412.979C1864.39 431.853 1861.89 472.451 1860.47 478.861C1859.04 485.272 1817.37 517.323 1817.37 517.323Z" fill="#DD000B"/>
<path d="M1856.2 474.588C1856.2 474.588 1869.01 479.217 1872.57 489.189C1876.15 499.161 1877.92 504.503 1877.56 516.611C1877.21 528.719 1868.31 532.28 1868.31 532.28C1868.31 532.28 1846.71 536.721 1839.45 537.979C1828.53 539.879 1815.6 528.007 1816.31 515.543C1817.03 503.079 1818.8 494.175 1826.64 487.052C1834.48 479.929 1854.77 473.876 1856.2 474.588Z" fill="#FD2227"/>
<path d="M1856.2 476.012C1856.2 476.012 1850.85 487.052 1852.28 494.888C1853.71 502.723 1851.92 508.776 1853.71 516.967C1855.48 525.157 1862.96 530.144 1862.96 530.144C1862.96 530.144 1871.87 531.212 1874.72 521.24C1877.56 511.269 1875.43 503.079 1875.43 503.079L1856.2 476.012Z" fill="#DD000B"/>
<path d="M1902.13 426.511C1902.13 426.511 1906.41 416.54 1907.84 414.047C1909.27 411.555 1913.71 412.121 1914.24 415.115C1914.96 419.032 1914.6 420.457 1912.83 424.019C1911.04 427.58 1902.13 426.511 1902.13 426.511Z" fill="#E9AB86"/>
<path d="M2006.84 461.768L2023.93 482.779C2023.93 482.779 2026.79 502.723 2025.71 505.927C2024.64 509.132 2011.47 523.377 2009.33 524.089C2007.2 524.801 1990.45 486.696 1988.32 478.861C1986.19 471.027 1991.88 446.811 2006.84 461.768Z" fill="#F0BF97"/>
<path d="M1886.47 478.149C1886.47 478.149 1881.12 495.6 1876.15 505.571C1871.16 515.543 1864.75 522.308 1863.32 523.377C1861.89 524.445 1855.13 509.488 1855.13 498.448C1855.13 487.409 1852.28 478.861 1862.61 467.821C1872.79 456.935 1886.47 478.149 1886.47 478.149Z" fill="#F0BF97"/>
<path d="M2020.37 477.793C2020.37 477.793 2042.45 493.463 2047.08 505.927C2051.71 518.391 2053.84 519.816 2053.49 525.514C2053.13 531.212 2047.44 541.896 2038.89 544.389C2030.35 546.881 2025.71 547.238 2021.8 542.252C2017.88 537.267 2005.77 521.952 2005.77 521.952C2005.77 521.952 2022.15 511.269 2022.15 504.503C2022.15 497.736 2023.23 480.641 2020.37 477.793Z" fill="#FD2227"/>
<path d="M1962.92 455.032C1962.92 458.357 1960.29 461.056 1957.05 461.056H1919.88C1916.64 461.056 1914.01 458.357 1914.01 455.032V405.827C1914.01 402.493 1916.64 399.8 1919.88 399.8H1957.05C1960.29 399.8 1962.92 402.493 1962.92 405.827V455.032Z" fill="#EAF4FE"/>
<path d="M1887.89 430.784L1909.27 424.019L1925.28 423.663C1925.28 423.663 1926 426.511 1924.21 427.936C1922.44 429.36 1903.2 432.921 1903.2 432.921L1890.03 438.975L1887.89 430.784Z" fill="#F0BF97"/>
<path d="M1881.12 441.112C1882.09 440.532 1904.99 431.497 1904.99 431.497L1928.13 430.428L1932.05 431.853C1932.05 431.853 1932.76 432.921 1929.56 435.771C1926.36 438.619 1912.83 439.332 1908.91 440.4C1904.99 441.468 1888.96 451.44 1888.96 451.44C1888.96 451.44 1875.79 444.317 1881.12 441.112Z" fill="#F0BF97"/>
<path d="M1885.4 452.152L1907.48 445.029C1907.48 445.029 1929.92 445.743 1932.05 445.385C1934.19 445.029 1934.55 448.591 1932.76 450.016C1930.99 451.44 1913.17 451.796 1911.75 452.152C1910.33 452.508 1896.08 459.631 1896.08 459.631C1896.08 459.631 1883.97 455.357 1885.4 452.152Z" fill="#F0BF97"/>
<path d="M1893.24 463.192L1912.11 458.919L1929.56 457.851C1929.56 457.851 1930.99 458.919 1927.07 461.768C1923.15 464.616 1913.17 467.109 1913.17 467.109L1898.93 471.027C1898.93 471.027 1886.47 465.329 1893.24 463.192Z" fill="#F0BF97"/>
<path d="M1862.61 467.821C1862.61 467.821 1884.33 434.345 1886.11 433.277C1887.89 432.209 1890.03 429.36 1890.75 433.277C1891.45 437.195 1900 446.811 1900.36 451.084C1900.71 455.357 1901.43 467.109 1901.43 470.315C1901.43 473.52 1890.75 479.573 1885.4 482.779C1880.05 485.984 1872.68 483.971 1868.31 478.505C1864.03 473.164 1862.61 467.821 1862.61 467.821Z" fill="#F0BF97"/>
<path d="M1985.83 439.688L1964.11 429.36L1935.25 421.525C1935.25 421.525 1934.19 425.443 1939.53 428.292C1944.87 431.14 1963.04 438.263 1963.04 438.263L1973.4 444.481L1975.49 445.743C1975.49 445.743 1987.61 449.66 1985.83 439.688Z" fill="#F0BF97"/>
<path d="M1973.72 441.468C1973.72 441.468 1976.92 447.167 1975.85 448.235C1974.79 449.304 1971.93 448.235 1968.03 447.523C1964.11 446.811 1952.35 444.317 1952.35 444.317L1935.61 443.249C1935.61 443.249 1939.53 448.235 1942.03 449.304C1945.55 450.813 1953.77 452.864 1953.77 452.864L1971.59 458.919C1971.59 458.919 1984.76 461.412 1984.76 458.919C1984.76 456.425 1982.27 453.933 1983.69 451.796C1985.12 449.66 1987.61 443.249 1973.72 441.468Z" fill="#F0BF97"/>
<path d="M1964.45 461.056L1952.71 458.207C1952.71 458.207 1939.89 456.425 1939.89 457.851C1939.89 459.275 1939.89 459.275 1939.89 459.275C1939.89 459.275 1943.29 460.876 1947.72 462.48C1949.4 463.089 1956.91 465.552 1958.76 466.041C1965.53 467.821 1972.65 472.095 1973.72 472.095C1974.79 472.095 1985.12 467.109 1964.45 461.056Z" fill="#F0BF97"/>
<path d="M1991.52 438.619L1982.97 421.881L1962.32 408.349C1962.32 408.349 1961.25 412.623 1966.95 417.964C1972.65 423.305 1973 424.019 1974.08 424.375C1975.15 424.731 1977.99 436.839 1977.99 436.839C1977.99 436.839 1992.6 442.536 1991.52 438.619Z" fill="#F0BF97"/>
<path d="M1981.2 450.372L1984.76 436.127C1984.76 436.127 1990.45 433.633 1995.8 444.317C2001.15 455.001 2007.55 464.26 2007.55 464.26C2007.55 464.26 2008.27 472.095 2003.63 474.232C1999 476.368 1991.88 480.285 1984.4 478.505C1976.92 476.724 1970.39 470.192 1968.37 468.177C1965.97 465.779 1971.11 464.621 1972.29 462.48C1973.76 459.853 1971.79 456.376 1973.36 455.001C1976.21 452.508 1981.2 450.372 1981.2 450.372Z" fill="#F0BF97"/>
<path d="M1914.44 1149.49L1913.53 1220.83C1913.53 1220.83 1886.17 1251.8 1876.31 1256.76C1866.44 1261.71 1867.84 1257.37 1868.55 1254.89C1869.25 1252.4 1885.91 1234.43 1888.73 1224.51C1891.55 1214.6 1887.03 1153.8 1887.76 1150.71C1888.47 1147.59 1914.44 1149.49 1914.44 1149.49Z" fill="#F0BF97"/>
<path d="M2062.36 1184.33C2062.36 1184.33 2074.63 1223.95 2076.15 1237.52C2077.65 1251.07 2075.31 1255.53 2079.49 1259.64C2083.68 1263.73 2113.13 1296.17 2119.63 1295.81C2126.13 1295.44 2125.75 1289.28 2125.75 1289.28C2125.75 1289.28 2102.65 1264.53 2098.77 1254.84C2094.91 1245.13 2090.8 1190.16 2090.45 1184.6C2090.11 1179.05 2062.36 1184.33 2062.36 1184.33Z" fill="#F0BF97"/>
<path d="M1947.32 649.673L1935.95 908.093L1919.04 1157.76L1880.84 1159.37C1880.84 1159.37 1879.59 907.187 1876.6 885.68C1873.59 864.173 1848.45 689.251 1871.95 646.265C1895.44 603.281 1947.32 649.673 1947.32 649.673Z" fill="#0561FC"/>
<path d="M2026.41 650.732C2026.41 650.732 2058.73 786.821 2063.39 860.96C2068.04 935.107 2089.45 1151.37 2089.45 1151.37L2091.84 1189.29L2062.28 1190.12L1998.93 915.893L1938.95 663.752L2026.41 650.732Z" fill="#0561FC"/>
<path d="M1914.27 1217.11C1914.27 1217.11 1916.76 1221.44 1915.92 1226.04C1915.24 1229.76 1911.8 1240.67 1911.8 1240.67L1904.57 1243.76L1904.67 1238.8C1904.67 1238.8 1891.33 1253.67 1884.75 1258.01C1878.13 1262.33 1864.28 1273.15 1856.49 1270.39C1854.44 1269.65 1853.96 1267.28 1853.96 1267.28C1853.96 1267.28 1866.61 1254.27 1868.6 1252.41C1870.6 1250.55 1875.07 1254.27 1880.33 1251.17C1885.61 1248.08 1900.77 1234.55 1904.87 1230.12C1910.2 1224.33 1914.27 1217.11 1914.27 1217.11Z" fill="#161711"/>
<path d="M2076.73 1250.4C2076.73 1250.4 2075.59 1255.12 2076.57 1259.64C2077.36 1263.33 2080.72 1269.08 2080.72 1269.08L2087.47 1272.21C2087.47 1272.21 2100.57 1285.95 2106.89 1289.92C2113.2 1293.91 2126.56 1303.96 2133.67 1300.81C2135.56 1299.97 2135.89 1297.57 2135.89 1297.57C2135.89 1297.57 2123.6 1285.25 2121.67 1283.51C2119.73 1281.76 2115.73 1285.69 2110.71 1282.89C2105.68 1280.08 2091.01 1267.36 2087.01 1263.15C2081.83 1257.65 2076.73 1250.4 2076.73 1250.4Z" fill="#161711"/>
<path d="M1875 367.147C1875 367.147 1823.27 363.934 1824.99 336.48C1826.72 309.014 1853.03 298.52 1840.96 276.133C1828.89 253.747 1808.63 236.173 1850.88 222.92C1893.13 209.667 1872.88 160.694 1902.19 159.72C1931.51 158.747 1933.67 182.013 1960.81 183.96C1987.97 185.907 2025.07 160.813 2035.83 203.8C2046.6 246.773 2040.13 286.947 2022.88 289.36C2005.64 291.787 2024.17 310.64 2027.19 325.4C2030.2 340.147 2038.36 388.027 1972.84 353.24C1907.32 318.453 1906.89 366.867 1875 367.147Z" fill="#202954"/>
<path d="M1916.68 312.867C1916.68 312.867 1924.21 323.44 1916.27 335.107C1908.32 346.773 1890.04 355.08 1915.48 365.907C1947.85 379.68 1970.75 353.147 1970.75 353.147C1970.75 353.147 1948.68 343.547 1953.61 327.907C1958.55 312.253 1982.44 297.907 1960.15 302.827C1937.87 307.76 1912.96 301.56 1916.68 312.867Z" fill="#F7B68B"/>
<path d="M1939.73 344.32C1944.83 343.92 1949.81 342.04 1954.56 339.093C1952.95 335.84 1952.29 332.093 1953.61 327.907C1958.55 312.253 1982.44 297.907 1960.15 302.827C1937.87 307.76 1912.96 301.56 1916.68 312.867C1916.68 312.867 1924.21 323.44 1916.27 335.107C1915.69 335.947 1915.05 336.773 1914.39 337.587C1922.67 345.427 1926.55 345.36 1939.73 344.32Z" fill="#EC9568"/>
<path d="M1897.85 208.253C1897.85 208.253 1864.73 258.933 1896.28 292.56C1927.81 326.2 1924.52 327.08 1946.05 325.373C1967.59 323.68 1987.57 296.147 1992.36 268.173C1996.92 241.52 1982.89 246.013 1953.95 234.213C1925 222.427 1920.81 220.027 1920.81 220.027C1920.81 220.027 1924.05 231.093 1943.16 239.56C1962.25 248 1910.49 253.453 1897.85 208.253Z" fill="#F7B68B"/>
</svg>
