<svg width="1707" height="1067" viewBox="0 0 1707 1067" fill="none" xmlns="http://www.w3.org/2000/svg">
<g clip-path="url(#clip0_57_3776)">
<path d="M2908.8 713.867L521.333 1353.97C521.333 1353.97 750.666 1163.56 693.733 1011.24C636.8 858.92 517.106 700.867 768.306 507.813C1019.51 314.76 1122.17 299.813 993.56 45.4934C864.946 -208.827 1310.4 -643.84 1649.04 -90C1987.68 463.84 2035.71 126.107 2228.49 184C2421.28 241.893 2341.23 508.293 2573.25 520.213C2805.28 532.133 2882.2 614.667 2908.8 713.867Z" fill="#E8F0FA"/>
<path d="M1613.03 1014.25C1613.03 1014.25 1676.71 971.307 1659.36 912.507C1642.01 853.707 1648.11 854.667 1657.33 824C1666.56 793.333 1670.85 759.933 1649.15 741.533C1627.44 723.133 1649.48 706.16 1614.87 691.547C1614.87 691.547 1618.45 746.213 1601.99 767.467C1585.52 788.72 1572.07 833.56 1581.2 858.133C1590.33 882.707 1603.43 918.013 1588.64 949.653C1573.85 981.293 1598.67 1009.4 1613.03 1014.25Z" fill="#F685C8"/>
<path d="M1602.67 1027.53C1610.77 1015.26 1616.85 1001.75 1620.65 987.533C1622.52 980.459 1623.71 973.221 1624.2 965.92L1624.39 963.186C1624.39 962.267 1624.39 961.36 1624.39 960.44V957.693V956.36C1624.39 955.893 1624.39 955.44 1624.39 955.027L1624.09 949.56C1623.96 947.771 1623.72 945.991 1623.39 944.227C1623.04 942.453 1622.59 940.68 1622.16 938.893C1621.73 937.107 1621.31 935.307 1620.89 933.56C1620.09 929.96 1619.37 926.347 1618.65 922.747C1617.23 915.547 1615.81 908.333 1614.43 901.107C1613.09 893.88 1611.76 886.653 1610.64 879.373C1609.47 872.087 1608.68 864.743 1608.28 857.373L1608.17 854.6C1608.17 853.68 1608.17 852.747 1608.17 851.827C1608.17 850.907 1608.17 849.973 1608.17 849.053L1608.29 846.28V844.947L1608.43 843.613L1608.68 840.84C1608.77 839.92 1608.93 839 1609.05 838.08C1609.17 837.16 1609.29 836.24 1609.49 835.333C1610.73 828.001 1613.01 820.884 1616.28 814.2C1617.96 810.889 1619.89 807.711 1622.07 804.693C1624.2 801.667 1626.49 798.8 1628.55 795.8C1629.57 794.309 1630.52 792.765 1631.39 791.173C1633.09 787.993 1634.29 784.571 1634.96 781.027C1635.29 779.264 1635.52 777.483 1635.64 775.693C1636.24 768.44 1635.01 761.173 1633.49 754.013C1631.97 746.853 1630.05 739.747 1628.16 732.68C1626.27 725.613 1624.4 718.467 1622.43 711.347C1620.45 704.227 1618.43 697.227 1616.21 690.2C1618.55 697.179 1620.77 704.183 1622.88 711.213C1624.97 718.253 1626.97 725.333 1628.99 732.4C1629.99 735.933 1630.95 739.48 1631.89 743.067C1632.84 746.653 1633.75 750.187 1634.56 753.733C1635.37 757.28 1636.09 760.947 1636.57 764.627C1637.07 768.307 1637.21 772.027 1636.99 775.735C1636.88 777.597 1636.67 779.455 1636.35 781.293C1636 783.133 1635.53 784.947 1634.93 786.72C1634.32 788.495 1633.57 790.22 1632.69 791.88C1631.81 793.523 1630.84 795.117 1629.79 796.653C1627.71 799.735 1625.41 802.6 1623.33 805.6C1621.21 808.561 1619.33 811.681 1617.69 814.933C1614.53 821.488 1612.32 828.46 1611.13 835.64C1609.93 842.837 1609.53 850.143 1609.93 857.427C1610.31 864.733 1611.05 872.013 1612.2 879.24C1613.28 886.493 1614.57 893.72 1615.91 900.933C1617.24 908.147 1618.57 915.373 1620.05 922.573C1620.75 926.187 1621.47 929.773 1622.24 933.36C1622.61 935.16 1623.01 936.948 1623.43 938.693C1623.84 940.44 1624.28 942.267 1624.61 944.107C1624.93 945.939 1625.16 947.786 1625.28 949.64L1625.52 955.186C1625.52 955.64 1625.52 956.107 1625.52 956.52V957.853V960.627C1625.52 961.562 1625.52 962.48 1625.44 963.402L1625.23 966.16C1624.65 973.519 1623.39 980.807 1621.41 987.92C1619.41 995.016 1616.81 1001.93 1613.63 1008.57L1612.43 1011.07C1612.03 1011.89 1611.57 1012.69 1611.16 1013.51C1610.32 1015.15 1609.4 1016.75 1608.49 1018.35C1606.67 1021.33 1604.69 1024.51 1602.67 1027.53Z" fill="white"/>
<path d="M1643.39 1108.39C1643.39 1108.39 1667.83 1060.59 1628.93 1013.8C1590.04 967.014 1561.87 940.146 1567.48 894.64C1573.09 849.133 1567.67 819.32 1546.29 798.52C1524.92 777.72 1529.52 768.16 1512.96 752.267C1496.4 736.373 1463.72 720.787 1463.72 720.787C1463.72 720.787 1506.83 780.347 1497.31 823.453C1487.79 866.56 1492.05 898.401 1511.41 927.813C1530.77 957.227 1524.37 1016.87 1574.08 1046.76C1623.79 1076.65 1643.39 1108.39 1643.39 1108.39Z" fill="#B1D0EF"/>
<path d="M1642.47 1116.07C1643.15 1106.57 1642.73 1097.04 1641.24 1087.64C1639.73 1078.25 1636.91 1069.12 1632.87 1060.51C1631.8 1058.4 1630.79 1056.25 1629.6 1054.2C1628.41 1052.15 1627.17 1050.12 1625.84 1048.16C1623.12 1044.27 1620.19 1040.53 1617.07 1036.96L1598.49 1015.29C1592.31 1008.07 1586.12 1000.84 1580.04 993.52C1577 989.857 1573.99 986.169 1571 982.453C1568.04 978.733 1565.11 974.974 1562.39 971.053C1557.04 963.126 1552.49 954.688 1548.81 945.867C1548.32 944.774 1547.93 943.653 1547.48 942.533L1546.15 939.2L1544.97 935.813C1544.59 934.68 1544.2 933.56 1543.87 932.413C1543.17 930.133 1542.45 927.853 1541.87 925.533C1541.56 924.387 1541.24 923.24 1540.96 922.08L1540.13 918.6C1537.97 909.267 1536.55 899.867 1535.29 890.427C1534.04 880.987 1532.8 871.533 1532.49 861.987C1532.32 857.213 1532.43 852.427 1532.71 847.667C1532.99 842.907 1533.48 838.173 1533.67 833.44C1534.03 823.964 1532.88 814.492 1530.28 805.373C1527.75 796.228 1524.05 787.443 1519.31 779.227C1514.55 771.003 1509 763.256 1502.76 756.093L1500.47 753.427L1498.04 750.76L1495.6 748.093C1494.79 747.227 1494 746.333 1493.13 745.52L1488.03 740.547L1486.69 739.307L1485.36 738.12L1482.69 735.747L1480.03 733.373L1478.69 732.187L1477.36 731.053L1472 726.667C1470.2 725.133 1468.25 723.747 1466.37 722.293L1460.68 718L1466.41 722.24C1468.32 723.667 1470.27 725.027 1472.09 726.56L1477.67 731.027L1479 732.147C1479.45 732.52 1479.89 732.92 1480.33 733.32L1483 735.667L1485.67 738.013L1487 739.187L1488.33 740.427L1493.49 745.36C1494.37 746.16 1495.16 747.053 1495.99 747.907L1498.45 750.493L1500.92 753.08L1503.25 755.747C1509.56 762.897 1515.17 770.633 1520 778.853C1524.83 787.104 1528.6 795.935 1531.2 805.133C1533.89 814.332 1535.08 823.903 1534.73 833.48C1534.56 838.253 1534.05 842.987 1533.8 847.735C1533.55 852.48 1533.43 857.2 1533.61 861.947C1533.93 871.427 1535.24 880.84 1536.45 890.28C1537.67 899.72 1539.12 909.093 1541.32 918.28L1542.13 921.747C1542.41 922.893 1542.73 924.04 1543.04 925.187C1543.61 927.48 1544.37 929.747 1545 932.013C1545.33 933.16 1545.72 934.28 1546.11 935.4L1547.25 938.76L1548.59 942.08C1549.03 943.186 1549.41 944.307 1549.92 945.386C1553.56 954.144 1558.05 962.521 1563.33 970.4C1566 974.28 1568.95 978.04 1571.89 981.76C1574.84 985.48 1577.85 989.16 1580.89 992.827C1586.97 1000.13 1593.09 1007.41 1599.25 1014.67L1617.71 1036.44C1620.83 1040.05 1623.75 1043.83 1626.47 1047.75C1627.8 1049.73 1629.05 1051.75 1630.21 1053.85C1631.37 1055.96 1632.41 1058.08 1633.47 1060.23C1637.44 1068.91 1640.17 1078.11 1641.6 1087.55C1642.97 1096.99 1643.27 1106.56 1642.47 1116.07Z" fill="white"/>
<path d="M1550.67 1049.33C1547.47 1028.21 1531.55 1003.31 1497.61 991.827C1463.68 980.347 1453.17 951.2 1450.49 928.187C1447.81 905.173 1429.48 871.64 1429.48 871.64L1430.41 872.173L1430.81 872.413C1439.15 876.927 1447.77 880.9 1456.61 884.307C1475.57 891.88 1480.51 916.813 1497.21 924.213C1513.92 931.613 1526.24 941.546 1537.51 956.453C1548.77 971.36 1558.15 979.72 1588.25 988.735C1618.36 997.747 1632.67 1059.51 1632.67 1059.51C1632.04 1061.24 1631.33 1062.87 1630.63 1064.4C1630.64 1064.44 1630.64 1064.49 1630.63 1064.53C1609.69 1108.4 1553.85 1070.33 1550.67 1049.33Z" fill="#F685C8"/>
<path d="M1630.57 1064.51C1622.81 1059.97 1615.25 1055.08 1607.91 1049.84C1597.81 1042.57 1588.27 1034.59 1579.33 1025.95C1574.85 1021.63 1570.57 1017.11 1566.4 1012.51C1562.23 1007.91 1558.07 1003.33 1553.63 999.027C1549.19 994.72 1544.53 990.627 1539.71 986.747C1534.91 982.85 1529.91 979.201 1524.73 975.813C1522.12 974.16 1519.45 972.596 1516.73 971.12C1514.07 969.627 1511.25 968.16 1508.63 966.44C1506.01 964.716 1503.53 962.817 1501.17 960.76C1499.99 959.747 1498.84 958.68 1497.69 957.64L1494.35 954.374C1489.96 949.939 1485.97 945.12 1482.44 939.974C1478.88 934.853 1475.77 929.507 1472.41 924.267C1465.84 913.775 1458.57 903.735 1450.67 894.213C1444.31 886.533 1437.59 879.179 1430.48 872.147L1430.88 872.373C1437.99 879.181 1444.73 886.339 1451.11 893.84C1459.16 903.312 1466.57 913.317 1473.28 923.787L1478.28 931.64L1480.79 935.56C1481.64 936.893 1482.48 938.146 1483.37 939.4C1486.89 944.481 1490.85 949.241 1495.21 953.627L1498.55 956.853C1499.69 957.88 1500.81 958.947 1501.99 959.933C1504.32 961.952 1506.79 963.813 1509.36 965.507C1511.92 967.186 1514.69 968.627 1517.36 970.12C1520.03 971.614 1522.79 973.16 1525.36 974.827C1530.56 978.252 1535.57 981.941 1540.4 985.88C1545.24 989.786 1549.92 993.88 1554.36 998.267C1558.8 1002.65 1563 1007.24 1567.16 1011.84C1571.32 1016.44 1575.55 1020.97 1579.96 1025.31C1588.81 1033.98 1598.28 1042.01 1608.28 1049.33C1615.49 1054.67 1622.95 1059.67 1630.65 1064.31L1630.57 1064.51Z" fill="white"/>
<path d="M1158.28 905.827V797.333H1049.76V905.853L994.773 927.84H1213.33L1158.28 905.827Z" fill="#3D4287"/>
<path d="M838.893 398.187H1382.89C1389.67 398.179 1395.16 403.665 1395.17 410.44C1395.17 410.444 1395.17 410.449 1395.17 410.453V806.96C1395.17 813.741 1389.68 819.24 1382.89 819.24H838.893C832.112 819.24 826.613 813.741 826.613 806.96V410.453C826.62 403.677 832.117 398.187 838.893 398.187Z" fill="#3D4287"/>
<path d="M848.2 409.92H1373.53C1380.71 409.92 1386.52 415.735 1386.52 422.907V782.773C1386.52 789.947 1380.71 795.76 1373.53 795.76H848.2C841.028 795.76 835.213 789.947 835.213 782.773V422.907C835.213 415.735 841.028 409.92 848.2 409.92Z" fill="white"/>
<path d="M1336.44 408.68C1336.44 408.68 1338.4 366.147 1308.85 366.147H1072.47C1072.47 366.147 1096.76 383.013 1092.16 408.68H1336.44Z" fill="#31376E"/>
<path d="M1041.69 365.427C1071.76 365.427 1257.27 363.96 1285.87 364.68H1286.95C1295.84 364.92 1302 364.68 1301.27 366.107C1295.36 377.92 1285.03 414.173 1284.4 449.707C1283.2 518.013 1285.92 619.12 1286.96 653.813C1287.15 660.349 1282.01 665.805 1275.48 666C1275.47 666 1275.47 666 1275.47 666H1034.99C1028.53 665.993 1023.27 660.825 1023.15 654.373C1022.31 609.107 1019.59 445.8 1023.37 417.427C1027.76 384.48 1032.16 365.427 1041.69 365.427Z" fill="#9471BF"/>
<path d="M992.573 623.52C992.573 623.52 990.453 666.053 1022.21 666.053H1276.33C1276.33 666.053 1250.23 649.187 1255.16 623.52H992.573Z" fill="#D9C1E5"/>
<path d="M1059.29 400.253H1244.07V402.453H1059.29V400.253Z" fill="white"/>
<path d="M1059.29 428.48H1244.07V430.68H1059.29V428.48Z" fill="white"/>
<path d="M1059.29 456.707H1244.07V458.907H1059.29V456.707Z" fill="white"/>
<path d="M1059.29 484.947H1244.07V487.147H1059.29V484.947Z" fill="white"/>
<path d="M1059.29 513.173H1244.07V515.373H1059.29V513.173Z" fill="white"/>
<path d="M1059.29 541.4H1244.07V543.6H1059.29V541.4Z" fill="white"/>
<path d="M1059.29 569.627H1244.07V571.827H1059.29V569.627Z" fill="white"/>
<path d="M1059.29 597.867H1244.07V600.067H1059.29V597.867Z" fill="white"/>
<path d="M1056.36 399.147H1158.28V517.2H1056.36V399.147Z" fill="#9471BF"/>
<path d="M1065.23 409.413H1149.43V506.933H1065.23V409.413Z" fill="white"/>
<path d="M1066.57 413.888L1068.23 412.449L1143.03 499.033L1141.36 500.472L1066.57 413.888Z" fill="#8D77BB"/>
<path d="M1064.09 493.74L1138.46 406.787L1140.13 408.216L1065.77 495.171L1064.09 493.74Z" fill="#8D77BB"/>
<path d="M1360 523.733C1360 523.733 1344.61 508.333 1358.53 507.6C1372.45 506.867 1396.67 503.933 1394.47 517.867C1392.27 531.8 1391.53 537.427 1386.47 537.867C1381.4 538.307 1360 523.733 1360 523.733Z" fill="#3B3063"/>
<path d="M1360.92 515.147C1360.92 515.147 1348.41 547.04 1368.19 546.427C1375.13 546.413 1381.61 542.905 1385.41 537.093C1385.41 537.093 1389.59 538.693 1390.64 530.053C1391.25 524.92 1384.99 521.76 1384.2 529.813C1384.2 529.813 1379.48 530.96 1379 524.027C1378.52 517.093 1374.91 517.173 1371 518.133C1367.09 519.093 1361.4 517.333 1360.92 515.147Z" fill="#FBCEBA"/>
<path d="M1386.89 536.16C1386.89 536.16 1388.37 550.12 1392.23 556.733C1392.23 556.733 1396.81 561.507 1400.71 562.893C1405.44 564.6 1381.6 602.08 1374.69 589.667C1367.79 577.253 1369.49 571.4 1369.49 571.4C1369.49 571.4 1375.39 563.4 1375.16 562.227C1374.93 561.053 1370.21 544.667 1370.21 544.667C1370.21 544.667 1371.04 529.12 1386.89 536.16Z" fill="#FBCEBA"/>
<path d="M1500 957.08L1472 968.48C1470.33 965.186 1413.24 851.707 1408.75 841.453C1386.33 790.307 1388.45 704.88 1388.45 704.88H1445.79C1460.57 742.827 1443.59 822.933 1443.59 822.933C1471.44 836.093 1500 957.08 1500 957.08Z" fill="#31376E"/>
<path d="M1406.19 975.414C1406.19 975.893 1395.33 975.146 1395.39 975.614C1396.15 981.312 1397.32 986.951 1398.89 992.48H1346.16L1374.81 976C1374.81 975.886 1374.81 975.769 1374.81 975.653C1374.72 965.174 1370.37 852.547 1366.21 834.32C1362 815.867 1372.55 704.587 1372.55 704.587L1435.53 704.147C1441.95 740.8 1404 827.333 1404 827.333C1423.79 862.493 1404.77 964.52 1406.19 975.414Z" fill="#3D4287"/>
<path d="M1346.16 992.48L1374.81 976C1374.81 975.886 1374.81 975.769 1374.81 975.653H1395.41C1396.16 981.353 1397.33 986.991 1398.91 992.52L1346.16 992.48Z" fill="#31376E"/>
<path d="M1364.75 578.973L1392.36 556.733C1392.36 556.733 1420.23 551.84 1428.36 603.4C1436.49 654.96 1445.96 704.827 1445.96 704.827H1372.63C1372.63 704.827 1379.29 665.24 1372.63 651.307C1365.96 637.373 1350.33 583.613 1364.75 578.973Z" fill="#8284CA"/>
<path d="M1325.43 589.133L1280.91 558.933C1276.16 555.133 1270.35 550.347 1269.08 548.667C1266.88 545.733 1261.08 534.733 1258.81 537.667C1256.55 540.6 1250.01 552.333 1253.68 556C1257.35 559.667 1263.95 560.4 1263.95 560.4L1269.79 566.547L1308.56 611.093C1313.72 615.747 1322.85 601.227 1326.69 594.467C1327.75 592.633 1327.19 590.297 1325.43 589.133Z" fill="#FBCEBA"/>
<path d="M1404.83 574.333C1405.56 582.4 1401.43 600.48 1387.23 605.853C1366.76 613.627 1354 620.173 1338.95 624.333C1330.32 626.72 1315.2 617.093 1308.55 611.093L1328.47 591.2C1328.47 591.2 1371.75 569.613 1379.8 567.013C1387.85 564.413 1403.69 561.853 1404.83 574.333Z" fill="#3D4287"/>
<path d="M1453.04 993.333L1472 968.52L1491.05 960.733L1491.24 961.04L1502.6 980.16L1453.04 993.333Z" fill="#31376E"/>
<path d="M1320.51 585.333C1320.51 585.333 1324.17 585.333 1324.91 588.267C1324.91 588.267 1327.84 587.533 1328.57 591.2L1309.51 612.453C1309.51 612.453 1303.64 611.72 1305.11 608.787C1305.11 608.787 1299.97 607.32 1301.44 604.387L1320.51 585.333Z" fill="#8284CA"/>
<path d="M1047.39 475.907L1030.71 458.573L1019.72 469.56L1037.89 489.693C1040.12 494.177 1043.42 498.041 1047.49 500.947L1059.63 509.867L1064.39 503.4L1052.59 494.56C1052.59 494.56 1073.09 491.413 1080.45 481.413L1085.21 474.947C1085.21 474.947 1069.01 485.76 1047.39 475.907Z" fill="#31376E"/>
<path d="M916.773 512.68L920.707 499.6L903.853 498.133L900.2 512.733C897.811 517.248 896.595 522.292 896.667 527.4V542.453H904.667L904.787 527.707C904.787 527.707 919.453 542.373 931.893 542.373H939.893C939.893 542.373 919.693 531.507 916.773 512.68Z" fill="#31376E"/>
<path d="M970.573 370.547C963.627 406.773 924.733 485.747 917.493 512.68L896.64 506.307C896.64 506.307 905.333 475.893 908 458.8C910.667 441.707 920.747 402.013 927.707 387.533C927.707 387.533 825.44 425.48 839.347 349.293C839.28 349.333 977.533 334.333 970.573 370.547Z" fill="#31376E"/>
<path d="M837.12 352.96C837.12 352.96 830.587 396.227 849.12 398.293C867.653 400.36 918.653 394.52 925.893 401.76C933.133 409 960.373 437.693 986.44 453.92C1012.51 470.147 1026.67 483.72 1026.67 483.72L1044.33 470.093C1044.33 470.093 988.133 401.147 976.827 388.4C965.52 375.653 955.027 354.84 935.32 353.733C915.613 352.627 840.787 352.96 837.12 352.96Z" fill="#8284CA"/>
<path d="M873.787 193.133C883.12 192.227 890.787 199.587 891.8 200.6C899.893 208.667 899.067 220.44 897.693 228.6C895.867 239.467 905.453 241.453 909.693 250.28C913.693 258.613 908.987 271.613 900.227 277.053C888.227 284.547 871.533 275.947 863.16 268.093C845.2 251.253 851.16 224.613 851.973 221.013C852.787 217.413 858.267 194.667 873.787 193.133Z" fill="#31376E"/>
<path d="M888.666 206C888.666 206 900.413 239.027 883.48 236.667C873.56 235.333 868.653 226.187 868.653 226.187C868.653 226.187 864 227.067 862.906 221.387C862.173 217.613 867.213 214.12 868.973 220.973C868.973 220.973 870.986 220.973 872.706 216.493C873.773 213.68 874.16 210.04 878.106 210.92C882.053 211.8 888.24 208.133 888.666 206Z" fill="#FBCEBA"/>
<path d="M886.334 235.187C886.334 235.187 877.254 248.227 879 255.76C880.747 263.293 850.84 266.32 857.32 252.467C863.8 238.613 868.6 235.467 874.334 222.387C880.067 209.307 886.334 235.187 886.334 235.187Z" fill="#FBCEBA"/>
<path d="M892.12 247.373C886.453 248.707 883.253 253.013 884.546 258.693C889.88 282.227 903.306 338.133 910.466 338.16C919.533 338.16 952.973 339.76 952.973 339.76L958.106 323.627L917.773 325.093L904.573 264.227C903.693 259.173 903.373 253.56 899.306 250.48C897.286 248.732 894.777 247.648 892.12 247.373Z" fill="#FBCEBA"/>
<path d="M891.88 247.4C897.628 246.437 903.084 250.267 904.133 256C908.44 279.747 931.76 311.213 925.187 314.04C916.853 317.613 891.453 313.307 891.453 313.307L883.04 259.733C882.024 253.931 885.904 248.403 891.707 247.387C891.733 247.383 891.76 247.377 891.787 247.373L891.88 247.4Z" fill="#F254B2"/>
<path d="M905.333 289.893C889.933 321.427 909 352.96 909 352.96H837.133C837.133 352.96 856.933 321.427 848.133 306.76C839.333 292.093 828.333 263.507 831.267 255.427C833.427 249.493 847.507 247.533 854.787 246.907C857.453 246.68 859.133 246.627 859.133 246.627L884.213 246.107L889.2 246.627C893.6 247.36 895.347 247.96 896.987 251.067C903.147 262.973 911.867 276.48 905.333 289.893Z" fill="#F685C8"/>
<path d="M969.84 321.427C969.84 321.427 980.107 315.56 980.84 313.427C981.573 311.293 985.24 314.16 981.573 317.827C979.636 319.851 977.412 321.58 974.973 322.96L969.84 321.427Z" fill="#FBCEBA"/>
<path d="M864.44 360.653H945.773L979.787 336.44L899.653 337.587L864.44 360.653Z" fill="#ADADAB"/>
<path d="M979.733 336.44L945.72 360.653V285.413L978.373 255.8L979.706 336.44" fill="#DFDFDD"/>
<path d="M869.334 336.093C869.334 336.093 883.267 339.76 885.467 339.027C887.667 338.293 895 333.893 900.134 336.093C904.126 338.043 907.948 340.321 911.56 342.907C912.211 343.364 912.367 344.263 911.908 344.913C911.72 345.18 911.447 345.375 911.134 345.467C909.694 345.825 908.196 345.88 906.734 345.627C901.016 344.901 895.207 345.659 889.867 347.827C886.054 349.453 864.2 344.893 864.2 344.893L869.334 336.093Z" fill="#FBCEBA"/>
<path d="M841.093 249.6C835.328 248.64 829.864 252.499 828.84 258.253C824.533 282 817.346 334.733 823.92 337.56C832.253 341.133 870.853 346.36 870.853 346.36L874.52 336.827L839.2 324.32L849.933 261.987C850.95 256.184 847.07 250.656 841.268 249.639C841.245 249.635 841.222 249.631 841.2 249.627L841.093 249.6Z" fill="#FBCEBA"/>
<path d="M841.094 249.6C835.328 248.64 829.864 252.499 828.84 258.253C824.533 282 801.213 313.467 807.787 316.294C816.133 319.867 841.52 315.56 841.52 315.56L849.933 261.987C850.951 256.184 847.071 250.656 841.268 249.639C841.245 249.635 841.223 249.631 841.2 249.627L841.094 249.6Z" fill="#F254B2"/>
<path d="M973.747 322.08C973.996 320.783 975.095 319.82 976.413 319.747C979.08 319.627 983.08 319.933 983.08 322.893C983.08 327.293 982.347 334.627 976.48 333.893C972 333.333 973 325.84 973.747 322.08Z" fill="#FBCEBA"/>
<path d="M881.853 271.56C874.12 270.92 858.44 251.56 854.773 246.907C857.44 246.68 859.12 246.64 859.12 246.64L884.2 246.12C890.667 258.84 890.28 272.267 881.853 271.56Z" fill="#FBCEBA"/>
<path d="M808.374 545.773C808.374 545.773 818.334 537.56 818.387 549.173L805.814 576L788.894 577.973L808.374 545.773Z" fill="#FBCEBA"/>
<path d="M799 557.147L766 609.213L712.467 642.933L724.573 664.573L780 628.267L812.92 566.667L799 557.147Z" fill="#373D7D"/>
<mask id="mask0_57_3776" style="mask-type:luminance" maskUnits="userSpaceOnUse" x="712" y="557" width="101" height="108">
<path d="M799 557.147L766 609.2L712.48 642.933L724.573 664.573L779.933 628.267L812.92 566.68L799 557.147Z" fill="white"/>
</mask>
<g mask="url(#mask0_57_3776)">
<path d="M881.427 636.467L743.586 536.813L740.8 540.667L878.666 640.32L881.427 636.467ZM823.68 705.907L685.813 606.253L683.013 610.107L820.88 709.76L823.68 705.907ZM837.013 687.48L699.147 587.827L696.36 591.693L834.227 691.347L837.013 687.48ZM850.347 669.053L712.48 569.4L709.693 573.267L847.56 672.92L850.347 669.053ZM860.866 654.493L723 554.84L725.8 550.987L863.666 650.667L860.866 654.493Z" fill="#8284CA"/>
</g>
<path d="M877.453 611.413L793.867 587.213V471.773L877.453 496V611.413Z" fill="#F685C8"/>
<path d="M748.813 573.147C756.946 574.053 762.067 581.653 762.76 582.693C768.173 590.973 765.427 600.8 762.76 607.453C759.28 616.333 767.053 619.733 769.053 627.973C770.946 635.747 764.653 645.907 756.253 648.973C744.72 653.187 732.133 642.92 726.427 634.773C714.213 617.333 724 595.773 725.333 592.867C726.666 589.96 735.387 571.64 748.813 573.147Z" fill="#31376E"/>
<path d="M755.213 581.04C755.213 581.04 766.96 614.067 750.04 611.707C740.107 610.373 735.2 601.227 735.2 601.227C735.2 601.227 730.56 602.107 729.453 596.427C728.733 592.64 733.76 589.16 735.533 596.013C735.533 596.013 737.533 596.013 739.253 591.533C740.333 588.72 740.707 585.08 744.587 585.947C748.467 586.813 754.8 583.173 755.213 581.04Z" fill="#FBCEBA"/>
<path d="M752.88 610.227C752.88 610.227 743.8 623.267 745.547 630.8C747.293 638.333 717.333 641.333 723.867 627.507C730.4 613.68 735.147 610.507 740.88 597.427C746.613 584.347 752.88 610.227 752.88 610.227Z" fill="#FBCEBA"/>
<path d="M864.986 559.347C864.986 559.347 876.72 554.013 873.786 565.213L854.666 588L837.8 585.547L864.986 559.347Z" fill="#FBCEBA"/>
<path d="M618.427 984.12C616.947 988.8 615.267 999.414 625.947 1008.12C640.12 1019.63 635.173 1031.49 635.173 1031.49L587.427 1006.76C587.427 1006.76 593.147 980.48 602.093 975.093C602.093 975.093 602.187 974.827 602.347 974.32C605.547 964.667 638.227 868.027 671.16 850.6C671.16 850.6 664.76 771.28 701.187 732.413L757.333 742.213C757.333 742.213 715.827 846.88 703.6 866.907C691.373 886.933 622.373 966.373 619.333 981.693C618.965 982.476 618.661 983.288 618.427 984.12Z" fill="#F254B2"/>
<path d="M818.786 1048.67H764C764 1048.67 755.2 1023.25 760.093 1014C760.093 1014 759.973 1013.49 759.76 1012.53C756.773 999.493 735.56 903.2 754.24 871.747C754.24 871.747 729.306 850.24 706.333 735.36L769.88 735.12C769.88 735.12 790.44 845.333 790.44 868.773C790.44 892.213 773.106 996.773 778.44 1011.44C778.44 1011.44 778.44 1011.85 778.626 1012.55C779.4 1016.72 783.24 1031.47 798.733 1033.56C816.84 1036 818.786 1048.67 818.786 1048.67Z" fill="#F685C8"/>
<path d="M862.293 579.64C862.293 579.64 818.546 632.427 815.853 634.133C813.16 635.84 770.666 655.64 770.666 655.64V655.773C770.173 658.44 762.506 701.293 773.88 751.947C773.88 751.947 730.853 737.893 688.333 749.493C688.333 749.493 710.32 722.613 704.946 704.04C699.573 685.467 665.84 644.4 724.946 630.227L763.853 624.893L807.853 612.16L852.573 568.667L862.293 579.64Z" fill="#373D7D"/>
<mask id="mask1_57_3776" style="mask-type:luminance" maskUnits="userSpaceOnUse" x="688" y="624" width="86" height="128">
<path d="M770.666 655.773C770.173 658.44 762.506 701.293 773.88 751.947C773.88 751.947 730.853 737.893 688.333 749.493C688.333 749.493 710.32 722.613 704.946 704.04C699.573 685.467 665.84 644.4 724.946 630.227L763.853 624.893C763.853 624.893 770.666 655.693 770.666 655.773Z" fill="white"/>
</mask>
<g mask="url(#mask1_57_3776)">
<path d="M756.893 636.707H649.786V641.467H757.933C757.813 641.173 757.679 640.867 757.559 640.56C757.094 639.329 756.867 638.021 756.893 636.707Z" fill="#8284CA"/>
<path d="M649.786 659.44H819.893V664.2H649.786V659.44Z" fill="#8284CA"/>
<path d="M649.786 682.173H819.893V686.933H649.786V682.173Z" fill="#8284CA"/>
<path d="M649.786 704.907H819.893V709.667H649.786V704.907Z" fill="#8284CA"/>
<path d="M649.786 727.627H819.893V732.387H649.786V727.627Z" fill="#8284CA"/>
</g>
<path d="M749.627 626.8C749.627 626.8 722.253 673.467 717.853 695C713.453 716.533 694.133 748.333 694.133 748.333C694.133 748.333 698.053 757.667 703.667 747.36C703.667 747.36 721.547 716.587 725.173 696.027C727.187 684.653 739.2 651.52 757.293 625.853C757.333 625.8 754.76 621.92 749.627 626.8Z" fill="#F254B2"/>
<path d="M719.32 630.96C719.32 630.96 726.16 677.627 741.986 712.293C752.066 734.293 760.813 749.2 760.813 749.2C760.813 749.2 758.146 754.827 752.813 747.733C747.48 740.64 738.146 720.12 727.64 691.733C717.133 663.347 713.946 632.107 713.946 632.107C713.946 632.107 714.666 623.627 719.32 630.96Z" fill="#F685C8"/>
<path d="M755.026 574.32C750.626 567.453 728.2 568.667 716.36 580.6C707.706 589.333 711.506 592.96 702.186 605.933C692.266 619.747 678.453 618.28 672.493 629.027C665.346 641.947 665.76 661.36 681.293 673.027C699.08 686.36 734.4 684.827 738.546 674.147C742.146 664.813 726.546 656.24 730.093 640.947C732.28 631.613 739.426 628.947 739.266 620.573C739 611.24 736.386 611.013 737.4 605.387C738.626 598.56 745.813 598.467 753.04 586.453C753.6 585.507 757.706 578.507 755.026 574.32Z" fill="#3B3063"/>
<path d="M818.787 1048.67H764C764 1048.67 755.2 1023.25 760.093 1014L778.6 1012.53C779.373 1016.71 783.213 1031.45 798.72 1033.56C816.84 1036 818.787 1048.67 818.787 1048.67Z" fill="#31376E"/>
<path d="M635.16 1031.47L587.413 1006.73C587.413 1006.73 593.146 980.453 602.146 975.067L618.413 984.12C616.946 988.786 615.253 999.414 625.946 1008.12C640.12 1019.6 635.16 1031.47 635.16 1031.47Z" fill="#31376E"/>
<mask id="mask2_57_3776" style="mask-type:luminance" maskUnits="userSpaceOnUse" x="688" y="568" width="175" height="184">
<path d="M862.293 579.64C862.293 579.64 818.546 632.427 815.853 634.133C813.16 635.84 770.666 655.64 770.666 655.64V655.773C770.173 658.44 762.506 701.293 773.88 751.947C773.88 751.947 730.853 737.893 688.333 749.493C688.333 749.493 710.32 722.613 704.946 704.04C699.573 685.467 665.84 644.4 724.946 630.227L763.853 624.893L807.853 612.16L852.573 568.667L862.293 579.64Z" fill="white"/>
</mask>
<g mask="url(#mask2_57_3776)">
<path d="M902.773 661L808.706 519.2L804.706 521.867L898.773 663.6L902.773 661ZM824.306 705.733L730.253 564L726.253 566.667L820.32 708.413L824.306 705.733ZM843.253 693.16L749.186 551.427L745.186 554.093L839.253 695.827L843.253 693.16ZM862.186 680.587L768.12 538.853L764.12 541.52L858.186 683.253L862.186 680.587ZM877.16 670.667L783.093 528.853L787.093 526.187L881.133 668L877.16 670.667Z" fill="#8284CA"/>
</g>
<path d="M723.253 505.44H740.76V518.933H723.253V505.44Z" fill="#614B9B"/>
<path d="M750.413 481.52C750.413 470.173 741 461.133 729.866 462.44C721.608 463.592 715.093 470.045 713.866 478.293C712.849 484.421 714.776 490.669 719.066 495.16C721.72 497.821 723.228 501.416 723.266 505.173V505.44H740.773V505.333C740.79 501.576 742.274 497.975 744.906 495.293C748.485 491.607 750.464 486.657 750.413 481.52Z" fill="#9471BF"/>
<path d="M725.84 479.72C726.813 479.72 727.267 480.547 727.68 481.267C728.093 481.987 728.4 482.467 728.933 482.467C729.467 482.467 729.746 482.013 730.173 481.267C730.6 480.52 731.04 479.72 732.013 479.72C732.987 479.72 733.453 480.547 733.867 481.267C734.28 481.987 734.573 482.467 735.106 482.467C735.64 482.467 735.933 482.013 736.347 481.267C736.76 480.52 737.226 479.72 738.186 479.72C739.146 479.72 739.626 480.547 740.04 481.267C740.453 481.987 740.747 482.467 741.28 482.467C741.464 482.467 741.613 482.616 741.613 482.8C741.613 482.804 741.613 482.809 741.613 482.813C741.613 483 741.467 483.152 741.28 483.16C740.307 483.16 739.84 482.333 739.44 481.613C739.04 480.893 738.72 480.413 738.186 480.413C737.653 480.413 737.373 480.867 736.947 481.613C736.52 482.36 736.08 483.16 735.106 483.16C734.133 483.16 733.667 482.333 733.267 481.613C732.867 480.893 732.547 480.413 732.013 480.413C731.48 480.413 731.186 480.867 730.773 481.613C730.36 482.36 729.907 483.16 728.933 483.16C727.96 483.16 727.493 482.333 727.08 481.613C726.667 480.893 726.373 480.413 725.84 480.413C725.306 480.413 725 480.867 724.586 481.613C724.173 482.36 723.72 483.16 722.733 483.16C722.541 483.159 722.388 483.003 722.389 482.811C722.391 482.621 722.544 482.468 722.733 482.467C723.28 482.467 723.573 482.013 723.986 481.267C724.4 480.52 724.866 479.72 725.84 479.72Z" fill="white"/>
<path d="M732.653 493.707H731.32C730.275 493.605 729.339 494.357 729.213 495.4V505.44H734.72V495.4C734.601 494.371 733.687 493.621 732.653 493.707Z" fill="white"/>
<path d="M730.307 495.387C730.152 495.393 730.005 495.317 729.92 495.187L722.027 483.053C721.875 482.864 721.907 482.587 722.096 482.435C722.1 482.432 722.103 482.429 722.107 482.427C722.304 482.272 722.589 482.305 722.744 482.503C722.744 482.504 722.745 482.505 722.747 482.507L730.667 494.667C730.803 494.876 730.743 495.157 730.533 495.293C730.456 495.336 730.368 495.359 730.28 495.36L730.307 495.387Z" fill="white"/>
<path d="M733.72 495.387C733.469 495.387 733.266 495.184 733.266 494.933C733.246 494.855 733.246 494.772 733.266 494.693L741.173 482.56C741.296 482.344 741.569 482.267 741.786 482.387C742.001 482.5 742.084 482.765 741.97 482.981C741.966 482.987 741.964 482.993 741.96 483L734.053 495.133C733.994 495.271 733.868 495.367 733.72 495.387Z" fill="white"/>
<path d="M751.467 450.16C751.905 449.399 751.643 448.425 750.88 447.987C750.119 447.548 749.145 447.811 748.707 448.573L744.4 456C743.975 456.752 744.229 457.707 744.973 458.147C745.72 458.577 746.673 458.323 747.104 457.576C747.105 457.576 747.107 457.575 747.107 457.573L751.467 450.16Z" fill="#9471BF"/>
<path d="M764.12 464C764.879 463.559 765.135 462.585 764.693 461.827C764.252 461.068 763.279 460.812 762.52 461.253L755.053 465.56C754.312 465.995 754.056 466.945 754.48 467.693C754.897 468.447 755.848 468.719 756.601 468.3C756.605 468.297 756.609 468.296 756.613 468.293L764.12 464Z" fill="#9471BF"/>
<path d="M768.16 479.094H759.493C758.632 479.094 757.933 479.792 757.933 480.653C757.925 481.515 758.619 482.219 759.48 482.227C759.484 482.227 759.489 482.227 759.493 482.227H768.16C769.04 482.307 769.819 481.659 769.899 480.779C769.98 479.9 769.332 479.121 768.452 479.04C768.355 479.031 768.257 479.031 768.16 479.04V479.094Z" fill="#9471BF"/>
<path d="M762.52 500.133C763.316 500.515 764.272 500.179 764.654 499.383C764.996 498.673 764.768 497.82 764.12 497.373L756.64 493.067C755.894 492.636 754.94 492.891 754.508 493.636C754.508 493.637 754.506 493.639 754.506 493.64C754.076 494.385 754.33 495.34 755.076 495.771C755.077 495.772 755.078 495.772 755.08 495.773L762.52 500.133Z" fill="#9471BF"/>
<path d="M699.907 497.333C699.145 497.772 698.881 498.744 699.32 499.507C699.757 500.269 700.731 500.532 701.493 500.093L708.96 495.773C709.707 495.344 709.964 494.391 709.535 493.644C709.535 493.643 709.535 493.641 709.533 493.64C709.116 492.887 708.165 492.615 707.412 493.033C707.408 493.036 707.404 493.037 707.4 493.04L699.907 497.333Z" fill="#9471BF"/>
<path d="M706.093 480.653C706.093 479.792 705.395 479.093 704.533 479.093H695.853C694.977 479.093 694.267 479.804 694.267 480.68C694.267 481.556 694.977 482.267 695.853 482.267H704.52C705.389 482.267 706.093 481.563 706.093 480.693V480.653Z" fill="#9471BF"/>
<path d="M701.493 461.227C700.723 460.811 699.76 461.097 699.343 461.869C698.944 462.609 699.191 463.532 699.907 463.973L707.373 468.28C708.116 468.717 709.072 468.468 709.508 467.727C709.512 467.72 709.516 467.713 709.52 467.707C709.944 466.959 709.689 466.008 708.947 465.573L701.493 461.227Z" fill="#9471BF"/>
<path d="M715.307 448.573C714.847 447.828 713.869 447.596 713.123 448.056C712.408 448.497 712.16 449.42 712.56 450.16L716.867 457.627C717.296 458.373 718.249 458.631 718.996 458.203C718.997 458.201 718.999 458.201 719 458.2C719.753 457.783 720.025 456.832 719.607 456.079C719.604 456.075 719.603 456.071 719.6 456.067L715.307 448.573Z" fill="#9471BF"/>
<path d="M732 454.76C732.868 454.76 733.573 454.056 733.573 453.187V444.52C733.493 443.64 732.715 442.992 731.835 443.072C731.065 443.143 730.457 443.752 730.387 444.52V453.187C730.387 454.056 731.091 454.76 731.96 454.76H732Z" fill="#9471BF"/>
<path d="M1057.68 157.187L1052.87 156.92L1050.91 161.56L1047.32 162.813L1042.89 160.4L1039.29 163.6L1041.19 168.28L1039.53 171.693L1034.67 173.12L1034.4 177.933L1039.05 179.893L1040.29 183.48L1037.88 187.907L1041.08 191.507L1045.76 189.613L1049.19 191.267L1050.6 196.107L1055.41 196.373L1057.37 191.72L1060.96 190.48L1065.39 192.893L1068.99 189.693L1067.09 185.013L1068.75 181.587L1073.59 180.173L1073.85 175.36L1069.21 173.4L1067.96 169.813L1070.4 165.333L1067.2 161.733L1062.52 163.627L1059.11 161.973L1057.68 157.187Z" fill="#F24EAF"/>
<path d="M1037.21 169.573L1035.39 164.32H1029.56L1026.67 161L1027.29 155.227L1022.28 152.8L1018.13 156.88L1013.76 156.64L1010.12 152.093L1004.79 153.933V159.747L1001.53 162.667L995.746 162.04L993.333 167.04L997.413 171.187L997.16 175.56L992.626 179.213L994.466 184.467H1000.28L1003.2 187.733L1002.57 193.52L1007.59 195.947L1011.72 191.853L1016.09 192.107L1019.75 196.64L1025 194.813V188.987L1028.27 186.067L1034.05 186.707L1036.48 181.693L1032.39 177.547L1032.64 173.173L1037.21 169.573Z" fill="#B1D0EF"/>
<path d="M1002.92 173.707C1002.56 180.324 1007.63 185.984 1014.24 186.347C1020.86 186.711 1026.52 181.641 1026.88 175.024C1027.25 168.428 1022.21 162.779 1015.61 162.387C1009 161.993 1003.32 167.039 1002.92 173.653C1002.92 173.672 1002.92 173.689 1002.92 173.707Z" fill="white"/>
<path d="M1043.11 176C1042.76 182.095 1047.43 187.315 1053.52 187.657C1059.62 188 1064.84 183.337 1065.18 177.243C1065.52 171.156 1060.87 165.941 1054.79 165.587C1048.69 165.237 1043.46 169.9 1043.11 176Z" fill="white"/>
<path d="M1005.87 173.867C1005.57 178.873 1009.39 183.169 1014.4 183.463C1019.41 183.756 1023.7 179.936 1024 174.929C1024.29 169.924 1020.47 165.627 1015.46 165.333C1015.46 165.333 1015.46 165.333 1015.45 165.333C1010.45 165.039 1006.16 168.851 1005.87 173.849C1005.87 173.855 1005.87 173.861 1005.87 173.867Z" fill="#8D77BB"/>
<path d="M1045.92 176.173C1045.65 180.724 1049.13 184.628 1053.68 184.893C1058.23 185.157 1062.13 181.684 1062.4 177.133C1062.66 172.583 1059.19 168.679 1054.64 168.415C1054.63 168.413 1054.63 168.413 1054.63 168.413C1050.08 168.148 1046.19 171.616 1045.92 176.16C1045.92 176.164 1045.92 176.169 1045.92 176.173Z" fill="#8D77BB"/>
<path d="M1168.76 278.707C1165.68 278.627 1162.56 278.573 1159.43 278.56V275.6C1162.55 275.6 1165.71 275.667 1168.76 275.747V278.707ZM1140.95 278.893L1140.75 275.947C1143.85 275.813 1147 275.72 1150.08 275.667L1150.17 278.627C1147.09 278.627 1143.97 278.76 1140.91 278.893H1140.95ZM1187.25 279.627C1184.2 279.413 1181.08 279.213 1178.01 279.067L1178.27 276.12C1181.37 276.267 1184.53 276.467 1187.6 276.693L1187.25 279.627ZM1122.48 280.067L1122.03 277.133C1125.12 276.853 1128.27 276.627 1131.36 276.427L1131.68 279.373C1128.61 279.573 1125.51 279.8 1122.45 280.067H1122.48ZM1205.64 281.4C1202.6 281.04 1199.51 280.707 1196.47 280.413L1196.95 277.48C1200.04 277.773 1203.16 278.12 1206.28 278.48L1205.64 281.4ZM1104.12 282.093L1103.45 279.187C1106.52 278.773 1109.64 278.387 1112.72 278.053L1113.28 280.973C1110.24 281.333 1107.16 281.68 1104.12 282.093ZM1223.85 284.013C1220.85 283.507 1217.8 283.04 1214.77 282.6L1215.49 279.693C1218.56 280.133 1221.65 280.613 1224.69 281.133L1223.85 284.013ZM1085.97 284.947L1085.07 282.08C1088.09 281.533 1091.19 281 1094.23 280.52L1095.03 283.413C1092.01 283.893 1088.97 284.413 1085.97 284.96V284.947ZM1241.83 287.467C1238.87 286.827 1235.85 286.213 1232.87 285.64L1233.83 282.773C1236.85 283.36 1239.89 283.973 1242.89 284.627L1241.83 287.467ZM1068.09 288.653L1066.96 285.827C1069.93 285.133 1072.97 284.493 1075.97 283.853L1077 286.693C1074.04 287.32 1071.04 288.027 1068.09 288.653ZM1259.51 291.76C1256.6 290.987 1253.64 290.213 1250.69 289.507L1251.88 286.693C1254.85 287.427 1257.85 288.187 1260.8 288.973L1259.51 291.76ZM1050.53 293.187L1049.2 290.413C1052.12 289.587 1055.09 288.787 1058.04 288.027L1059.29 290.813C1056.39 291.573 1053.45 292.36 1050.56 293.187H1050.53ZM1276.85 296.947C1274.01 296.027 1271.12 295.133 1268.24 294.28L1269.65 291.533C1272.56 292.387 1275.49 293.293 1278.37 294.2L1276.85 296.947ZM1033.43 298.573L1031.84 295.907C1034.68 294.947 1037.57 294.013 1040.44 293.12L1041.92 295.787C1039.07 296.64 1036.21 297.56 1033.41 298.507L1033.43 298.573ZM1293.73 302.853C1290.97 301.813 1288.15 300.787 1285.35 299.8L1286.99 297.133C1289.81 298.133 1292.67 299.173 1295.47 300.227L1293.73 302.853ZM1016.77 304.68L1014.97 302.013C1017.72 300.92 1020.53 299.853 1023.35 298.827L1025.04 301.493C1022.27 302.507 1019.48 303.56 1016.77 304.64V304.68ZM1310.11 309.533C1307.44 308.36 1304.77 307.213 1301.99 306.107L1303.84 303.507C1306.51 304.627 1309.35 305.787 1312.05 306.973L1310.11 309.533ZM1325.89 316.96C1323.32 315.627 1320.69 314.387 1318.08 313.16L1320.12 310.653C1322.79 311.893 1325.45 313.187 1328.04 314.493L1325.89 316.96ZM1341.05 325.093C1338.6 323.693 1336.08 322.293 1333.56 320.947L1335.8 318.533C1338.35 319.867 1340.91 321.307 1343.4 322.733L1341.05 325.093ZM1355.53 333.92C1353.17 332.4 1350.77 330.88 1348.39 329.427L1350.81 327.12C1353.24 328.6 1355.67 330.133 1358.05 331.667L1355.53 333.92ZM1369.27 343.387C1367.05 341.773 1364.77 340.147 1362.49 338.573L1365.16 336.387C1367.47 337.987 1369.77 339.627 1372.01 341.267L1369.27 343.387ZM1382.21 353.467C1380.13 351.76 1378 350.04 1375.84 348.36L1378.63 346.293C1380.8 347.987 1382.97 349.733 1385.07 351.467L1382.21 353.467ZM1394.32 364.133C1392.37 362.307 1390.32 360.493 1388.37 358.733L1391.31 356.8C1393.35 358.587 1395.31 360.427 1397.33 362.267L1394.32 364.133ZM1405.53 375.32C1403.75 373.413 1401.89 371.507 1400.04 369.653L1403.13 367.867C1405.01 369.747 1406.88 371.667 1408.71 373.6L1405.53 375.32ZM1415.83 387.013C1414.2 385.027 1412.52 383.013 1410.8 381.107L1414.04 379.467C1415.77 381.427 1417.48 383.467 1419.13 385.44L1415.83 387.013ZM1425.16 399.147C1423.69 397.107 1422.16 395.04 1420.61 393.027L1423.97 391.533C1425.55 393.573 1427.09 395.667 1428.57 397.747L1425.16 399.147ZM1433.48 411.707C1432.15 409.6 1430.81 407.467 1429.48 405.373L1432.96 404.04C1434.29 406.16 1435.73 408.307 1437.04 410.44L1433.48 411.707ZM1440.75 424.613C1439.63 422.453 1438.45 420.267 1437.24 418.12L1440.81 416.96C1442.04 419.133 1443.24 421.347 1444.36 423.533L1440.75 424.613ZM1446.96 437.88C1446.03 435.667 1445.03 433.413 1443.99 431.213L1447.65 430.213C1448.71 432.453 1449.72 434.733 1450.67 436.973L1446.96 437.88ZM1452.09 451.413C1451.32 449.133 1450.51 446.853 1449.67 444.613L1453.4 443.8C1454.25 446.067 1455.08 448.373 1455.85 450.68L1452.09 451.413ZM1456.09 465.16C1455.52 462.853 1454.89 460.533 1454.23 458.267L1458.03 457.627C1458.69 459.933 1459.36 462.28 1459.91 464.613L1456.09 465.16ZM1458.96 479.08C1458.57 476.747 1458.15 474.4 1457.63 472.107L1461.47 471.64C1461.95 473.973 1462.39 476.36 1462.8 478.707L1458.96 479.08ZM1460.69 493.093C1460.49 490.76 1460.25 488.4 1459.96 486.08L1463.84 485.8C1464.12 488.16 1464.37 490.547 1464.57 492.907L1460.69 493.093ZM1461.28 507.173C1461.28 504.827 1461.28 502.453 1461.13 500.12L1465.01 500.04C1465.12 502.4 1465.17 504.787 1465.17 507.16L1461.28 507.173ZM1465.03 514.68L1461.15 514.6C1461.24 512.253 1461.29 509.88 1461.29 507.547H1465.17C1465.17 509.92 1465.17 512.32 1465.03 514.693V514.68ZM1463.88 528.92L1460.01 528.653C1460.29 526.32 1460.53 523.96 1460.72 521.627L1464.6 521.813C1464.41 524.173 1464.17 526.573 1463.89 528.92H1463.88ZM1461.59 543.08L1457.75 542.627C1458.21 540.333 1458.64 537.987 1459.08 535.653L1462.93 536.013C1462.55 538.373 1462.11 540.76 1461.6 543.08H1461.59ZM1458.13 557.107L1454.33 556.467C1455 554.187 1455.67 551.867 1456.19 549.56L1460 550.107C1459.43 552.44 1458.8 554.787 1458.13 557.107ZM1453.55 570.933L1449.8 570.12C1450.65 567.867 1451.47 565.573 1452.21 563.32L1455.99 564.04C1455.23 566.333 1454.4 568.653 1453.55 570.933ZM1447.81 584.547L1444.15 583.56C1445.19 581.347 1446.17 579.107 1447.12 576.893L1450.83 577.787C1449.87 580.053 1448.85 582.333 1447.81 584.573V584.547ZM888.813 620.32C887.293 618.253 885.787 616.147 884.36 614.053L887.8 612.72C889.227 614.773 890.707 616.853 892.213 618.893L888.813 620.32ZM898.493 632.507C896.8 630.52 895.133 628.507 893.533 626.467L896.867 624.947C898.44 626.947 900.093 628.947 901.76 630.907L898.493 632.507ZM909.16 644.24C907.32 642.333 905.493 640.387 903.72 638.44L906.92 636.76C908.666 638.68 910.48 640.613 912.253 642.48L909.16 644.24ZM920.747 655.453C918.747 653.64 916.746 651.773 914.84 649.92L917.906 648.093C919.8 649.92 921.76 651.773 923.733 653.56L920.747 655.453ZM933.213 666.12C931.08 664.4 928.947 662.627 926.867 660.787L929.773 658.827C931.826 660.573 933.933 662.32 936.04 664.027L933.213 666.12ZM946.547 676.173C944.267 674.56 942 672.893 939.786 671.213L942.533 669.12C944.707 670.773 946.96 672.427 949.2 674.013L946.547 676.173ZM960.64 685.613C958.226 684.107 955.827 682.547 953.493 680.973L956 678.667C958.306 680.213 960.68 681.76 963.053 683.253L960.64 685.613ZM975.453 694.4C972.946 693.067 970.427 691.547 967.96 690.093L970.347 687.76C972.773 689.2 975.267 690.627 977.747 692.013L975.453 694.4ZM990.96 702.4C988.293 701.067 985.693 699.8 983.133 698.4L985.333 696C987.866 697.333 990.466 698.667 993.066 699.907L990.96 702.4ZM1007.09 709.747C1004.43 708.587 1001.64 707.387 998.96 706.16L1000.96 703.627C1003.63 704.84 1006.29 706.027 1008.96 707.16L1007.09 709.747ZM1304.2 711.427L1302.36 708.76C1305.03 707.667 1307.77 706.507 1310.36 705.333L1312.31 707.893C1309.64 709.08 1306.87 710.24 1304.13 711.36L1304.2 711.427ZM1023.8 716.32C1020.99 715.293 1018.15 714.227 1015.39 713.133L1017.17 710.467C1019.84 711.547 1022.71 712.6 1025.48 713.613L1023.8 716.32ZM1287.45 717.787L1285.81 715.12C1288.61 714.147 1291.41 713.12 1294.15 712.08L1295.89 714.747C1293.12 715.8 1290.28 716.84 1287.45 717.827V717.787ZM1041.01 722.12C1038.12 721.227 1035.2 720.28 1032.35 719.32L1033.92 716.653C1036.75 717.613 1039.61 718.533 1042.48 719.427L1041.01 722.12ZM1270.21 723.36L1268.79 720.613C1271.67 719.76 1274.55 718.867 1277.37 717.947L1278.91 720.613C1276.04 721.533 1273.11 722.453 1270.21 723.28V723.36ZM1058.67 727.107C1055.71 726.347 1052.72 725.547 1049.79 724.72L1051.12 721.947C1054 722.76 1056.96 723.56 1059.88 724.307L1058.67 727.107ZM1252.4 728.147L1251.21 725.333C1254.13 724.613 1257.09 723.853 1259.99 723.067L1261.32 725.853C1258.37 726.653 1255.39 727.413 1252.43 728.147H1252.4ZM1076.51 731.253C1073.51 730.627 1070.47 729.92 1067.49 729.28L1068.61 726.453C1071.56 727.133 1074.56 727.787 1077.52 728.4L1076.51 731.253ZM1234.36 732.093L1233.4 729.227C1236.39 728.653 1239.39 728.027 1242.35 727.387L1243.41 730.227C1240.43 730.88 1237.37 731.56 1234.36 732.093ZM1094.77 734.547C1091.72 734.067 1088.64 733.547 1085.61 733L1086.51 730.133C1089.51 730.68 1092.55 731.187 1095.56 731.653L1094.77 734.547ZM1216.11 735.187L1215.37 732.293C1218.4 731.853 1221.45 731.373 1224.45 730.867L1225.29 733.747C1222.25 734.267 1219.16 734.747 1216.09 735.187H1216.11ZM1113.33 737C1110.25 736.667 1107.13 736.28 1104 735.88L1104.67 732.973C1107.69 733.373 1110.77 733.747 1113.83 734.067L1113.33 737ZM1197.56 737.44L1197.07 734.507C1200.12 734.213 1203.2 733.88 1206.24 733.507L1206.85 736.427C1203.77 736.8 1200.65 737.133 1197.52 737.44H1197.56ZM1132 738.587C1128.89 738.4 1125.75 738.16 1122.67 737.893L1123.09 734.96C1126.16 735.227 1129.25 735.453 1132.32 735.64L1132 738.587ZM1178.92 738.893L1178.65 735.947C1181.73 735.787 1184.83 735.587 1187.89 735.36L1188.28 738.293C1185.17 738.533 1182.03 738.733 1178.95 738.893H1178.92ZM1150.77 739.373C1147.67 739.373 1144.51 739.24 1141.44 739.12L1141.64 736.16C1144.71 736.28 1147.83 736.373 1150.89 736.427L1150.77 739.373ZM1160.11 739.373V736.413C1163.19 736.413 1166.29 736.413 1169.44 736.253L1169.57 739.213C1166.37 739.293 1163.23 739.36 1160.11 739.373Z" fill="#F685C8"/>
<path d="M1390.53 260.56H1236.92C1236.92 260.56 1249.16 173.054 1282.25 229.347C1282.25 229.347 1310.4 152.24 1339.77 233.64C1339.73 233.64 1390.53 216.507 1390.53 260.56Z" fill="white"/>
<path d="M1696.29 405.747H1542.67C1542.67 405.747 1554.91 318.227 1588 374.533C1588 374.533 1616.15 297.427 1645.52 378.813C1645.49 378.827 1696.29 361.68 1696.29 405.747Z" fill="white"/>
<path d="M740.853 321.013H587.24C587.24 321.013 599.48 233.507 632.573 289.8C632.573 289.8 660.72 212.693 690.093 294.093C690.053 294.093 740.853 276.96 740.853 321.013Z" fill="#D4E4F6"/>
<path d="M981.773 1399.51L-328.467 1876.4C-328.467 1876.4 -208.933 1758.13 -248.467 1675.33C-288 1592.53 -362.987 1509.57 -231.293 1388.76C-99.6001 1267.95 -62.8804 1272.09 -127.401 1117.89C-191.92 963.693 16.8931 714.987 234.373 1009.59C451.853 1304.19 462.28 1112 573.467 1135.12C684.653 1158.24 652.733 1311.84 783.707 1307.12C914.68 1302.4 961.96 1345.05 981.773 1399.51Z" fill="#E8F0FA"/>
<path d="M171.24 732.88C176.907 772.347 161.213 840.173 131.333 865.227C101.453 890.28 58.6668 926.133 54.4001 977.853C50.4673 1026.24 4.08031 1045.08 -19.9999 1043.79H-20.3863C-21.8051 1043.69 -23.2166 1043.52 -24.613 1043.25C-24.613 1043.25 -75.1994 941 -9.5598 877.92C56.0804 814.84 47.5465 811.467 58.2132 765.173C68.8798 718.88 87.8933 672.547 129.427 664.773C170.76 657.053 155.227 619.373 209.427 625.36H209.68L210.48 625.44C210.48 625.44 165.56 693.413 171.24 732.88Z" fill="#B1D0EF"/>
<path d="M209.666 625.333C203.444 629.901 197.306 634.619 191.253 639.48C182.653 646.36 174.426 653.667 165.92 660.813C157.413 667.96 149.066 674.88 141.333 682.667C137.425 686.499 133.773 690.583 130.4 694.893C127.058 699.215 124.142 703.849 121.693 708.733C116.708 718.46 113.519 729.007 112.28 739.867C110.947 750.72 111.387 761.747 110.586 772.8C110.025 783.971 107.28 794.924 102.506 805.04C100.069 810.049 97.1909 814.833 93.9059 819.333C92.2527 821.56 90.7199 823.867 88.9059 826C87.0929 828.133 85.4398 830.333 83.5726 832.347C76.0147 840.431 67.907 847.981 59.3065 854.947C50.9466 862.067 42.6398 869.307 36.0533 878.013L33.5991 881.28C32.7466 882.36 32.0799 883.56 31.333 884.693L29.0127 888L27.0533 891.587C26.4133 892.8 25.7199 893.96 25.1194 895.2L23.4262 898.92C22.8663 900.173 22.2799 901.413 21.733 902.667L20.2527 906.48C18.333 911.584 16.8523 916.844 15.8267 922.2C14.8002 927.533 14.2929 933.013 13.7595 938.507C11.9137 960.555 6.97624 982.235 -0.907091 1002.91C-6.16699 1017.02 -12.5524 1030.69 -20.0003 1043.79H-20.3867C-13.1363 1030.57 -6.96491 1016.79 -1.93365 1002.59C5.68771 981.943 10.3778 960.333 11.9997 938.386C12.4663 932.92 12.9325 927.387 13.9466 921.907C14.9565 916.456 16.4371 911.101 18.3731 905.907L19.8794 902.027C20.4262 900.693 21.0127 899.48 21.5861 898.213L23.2929 894.427C23.8929 893.16 24.6262 891.973 25.2393 890.733L27.2262 887.08L29.4799 883.56C30.2393 882.4 30.9194 881.187 31.7731 880.08L34.2799 876.733C40.9466 867.813 49.3997 860.44 57.7595 853.28C66.2669 846.347 74.2857 838.836 81.7595 830.8C83.6527 828.827 85.333 826.667 87.0929 824.56C88.8533 822.453 90.3866 820.213 92.0398 818.027C95.2658 813.612 98.0903 808.917 100.48 804C105.182 794.145 107.9 783.463 108.48 772.56C109.319 761.667 108.879 750.573 110.293 739.547C110.96 734.017 112.106 728.557 113.72 723.227C115.372 717.908 117.51 712.753 120.106 707.827C122.656 702.885 125.669 698.197 129.106 693.827C132.562 689.493 136.3 685.391 140.293 681.547C148.293 673.84 156.786 666.88 165.293 659.88C173.8 652.88 182.2 645.76 190.933 639.027C196.977 634.343 203.137 629.777 209.413 625.333H209.666Z" fill="white"/>
<path d="M479.36 657.693C477.853 658.453 381.427 706.72 364.227 769.56C346.893 832.907 319.36 871.747 273.56 897.04C227.76 922.333 195.027 1005.19 109 1010.13C22.9734 1015.08 -24.6001 1043.24 -24.6001 1043.24C-24.6001 1043.24 -24.6001 1041.91 -24.3865 1039.63C-24.3865 1039.36 -24.3865 1039.09 -24.3204 1038.81C-22.6668 1021.59 -11.8933 958.667 59.7468 928.867C143.213 894.2 198.827 878.347 222.893 814.64C246.96 750.933 274.68 715.467 317.16 702.867C359.64 690.267 360.187 674.547 392.88 665.067C421.147 656.867 465.16 657.333 476.6 657.6H477.72L479.36 657.693Z" fill="#F685C8"/>
<path d="M477.72 657.64C427.053 668.307 379.16 690.68 337.72 721.253C326.009 730.292 315.168 740.403 305.333 751.453C295.425 762.431 287.153 774.78 280.773 788.12C277.52 794.787 274.48 801.533 271.28 808.253C268.08 814.973 264.68 821.587 261.04 828.12C259.253 831.387 257.28 834.56 255.426 837.787C253.573 841.013 251.426 844.093 249.506 847.267C245.4 853.467 241.213 859.64 236.96 865.72C232.706 871.8 228.413 877.893 224 883.88C221.813 886.893 219.52 889.827 217.333 892.8C215.146 895.773 212.76 898.68 210.346 901.52C205.616 907.297 200.577 912.816 195.253 918.053C189.944 923.327 184.237 928.184 178.186 932.587L175.92 934.213C175.18 934.784 174.409 935.312 173.613 935.8L168.893 938.853C167.293 939.813 165.64 940.707 164.026 941.64C163.213 942.107 162.413 942.574 161.586 942.974L159.08 944.227C152.398 947.616 145.44 950.425 138.28 952.627C131.089 954.762 123.7 956.16 116.226 956.8C108.786 957.48 101.32 957.48 93.9196 957.64C86.5316 957.692 79.1608 958.347 71.8796 959.6C64.6045 960.969 57.4946 963.101 50.6665 965.96C37.0077 971.701 24.4586 979.788 13.5862 989.853C2.73057 999.963 -6.83142 1011.38 -14.8804 1023.84C-18.2226 1028.97 -21.3736 1034.23 -24.3335 1039.61C-24.3335 1039.36 -24.3335 1039.09 -24.2668 1038.81C-21.4756 1033.61 -18.5028 1028.52 -15.3471 1023.53C-7.42412 1010.92 2.02536 999.338 12.7863 989.04C23.7066 978.78 36.3425 970.516 50.1196 964.627C57.0124 961.71 64.1878 959.516 71.5332 958.08C78.8701 956.764 86.3061 956.069 93.7597 956C101.2 955.774 108.613 955.72 115.96 955C123.293 954.331 130.542 952.938 137.6 950.84C144.644 948.652 151.486 945.864 158.053 942.507L160.52 941.28C161.333 940.84 162.12 940.374 162.92 939.947C164.52 939.027 166.146 938.16 167.72 937.186L172.36 934.186C173.133 933.693 173.893 933.173 174.626 932.613L176.866 930.987C182.826 926.639 188.444 921.839 193.666 916.627C198.921 911.425 203.893 905.948 208.56 900.213C210.946 897.401 213.186 894.453 215.48 891.547C217.773 888.64 219.973 885.653 222.146 882.64C226.533 876.667 230.773 870.64 235.04 864.507C239.306 858.373 243.506 852.307 247.573 846.147C249.546 843 251.573 839.893 253.493 836.735C255.413 833.573 257.32 830.387 259.08 827.147C262.72 820.693 266.08 814.107 269.306 807.427C272.533 800.747 275.573 793.987 278.866 787.293C285.35 773.803 293.753 761.323 303.813 750.24C308.786 744.653 314.04 739.36 319.506 734.24C324.973 729.12 330.733 724.44 336.653 719.92C348.553 710.941 361.124 702.887 374.253 695.827C380.76 692.271 387.356 688.836 394.04 685.52C397.386 683.92 400.706 682.267 404.146 680.8L409.24 678.533L414.4 676.4C434.504 668.212 455.333 661.936 476.613 657.653L477.72 657.64Z" fill="white"/>
<path d="M375.8 950.253L374 951.4L373.333 951.813C363.253 958.28 324.733 983.813 307.093 1007.81C286.693 1035.53 251.693 1065.43 199.467 1055.27C147.24 1045.11 86.453 1057.49 79.4671 1089.47C73.7468 1115.44 -0.173006 1121.92 -20.5329 1080.33L-20.7605 1079.85C-25.3069 1070.29 -27.0532 1058.2 -24.5329 1043.27C-24.5329 1043.27 39.3598 974.107 84.8004 984.6C130.24 995.093 148.547 991.146 174.027 980.267C199.507 969.386 222.747 965.6 249.733 968.267C276.72 970.933 301.453 942.455 331.493 946.64C361.533 950.827 375.8 950.253 375.8 950.253Z" fill="#B1D0EF"/>
<path d="M393.333 953.573C386.722 952.464 380.036 951.876 373.333 951.813C373.573 951.667 373.8 951.507 374 951.4C380.492 951.614 386.956 952.341 393.333 953.573Z" fill="white"/>
<path d="M374 951.4L373.333 951.813C370.16 951.813 366.987 951.938 363.813 952.186C354.004 952.975 344.413 955.508 335.493 959.667C334.4 960.227 333.253 960.68 332.2 961.307L329 963.107L325.947 965.12C324.933 965.786 324 966.586 323.027 967.32C319.241 970.427 315.744 973.868 312.573 977.6C309.399 981.422 305.988 985.044 302.36 988.44C298.604 991.784 294.348 994.519 289.747 996.546C285.151 998.56 280.329 1000.01 275.387 1000.88C270.445 1001.66 265.436 1001.92 260.44 1001.67C255.48 1001.49 250.587 1001.11 245.693 1001.09C240.784 1001.07 235.883 1001.43 231.027 1002.15L227.413 1002.73L223.84 1003.51C221.453 1004.01 219.08 1004.72 216.707 1005.31C212 1006.64 207.307 1008.11 202.747 1009.91C198.187 1011.71 193.72 1013.67 189.293 1015.83C184.867 1017.99 180.507 1020.28 175.96 1022.41C171.413 1024.55 166.893 1026.41 162.2 1028.16C157.548 1029.83 152.807 1031.25 148 1032.41C138.359 1034.87 128.442 1036.07 118.494 1036C108.507 1035.88 98.6797 1034.23 88.9469 1033.16C84.0776 1032.6 79.1812 1032.31 74.2803 1032.29L70.6136 1032.4H68.7864L66.947 1032.57L63.2932 1032.89C62.0803 1033 60.8798 1033.25 59.6667 1033.41C49.9636 1034.88 40.499 1037.63 31.5203 1041.59C22.5782 1045.61 14.0864 1050.57 6.187 1056.39C-1.76664 1062.2 -9.24424 1068.64 -16.1729 1075.64C-17.6489 1077.13 -19.1068 1078.65 -20.5469 1080.19C-20.6265 1080.04 -20.6932 1079.87 -20.7734 1079.72C-19.4401 1078.19 -18.0136 1076.69 -16.6 1075.21C-9.77393 1068.11 -2.39945 1061.55 5.45315 1055.6C13.3844 1049.64 21.9251 1044.53 30.9328 1040.37C40.0027 1036.27 49.5746 1033.38 59.4 1031.79C60.6266 1031.61 61.8536 1031.35 63.0803 1031.23L66.8006 1030.87L68.6531 1030.68C69.2803 1030.68 69.9063 1030.68 70.5203 1030.59L74.2531 1030.45C79.2246 1030.43 84.1932 1030.69 89.1339 1031.25C99 1032.29 108.707 1033.92 118.467 1033.92C128.254 1033.94 138.004 1032.71 147.48 1030.27C152.236 1029.1 156.927 1027.68 161.533 1026.01C166.129 1024.33 170.64 1022.43 175.067 1020.31C179.493 1018.2 183.88 1015.93 188.333 1013.76C192.787 1011.59 197.347 1009.59 201.987 1007.81C206.627 1006.04 211.32 1004.57 216.16 1003.2C218.56 1002.61 220.947 1001.87 223.387 1001.41L227.04 1000.63L230.747 1000.03C235.683 999.307 240.667 998.972 245.653 999.027C250.627 999.027 255.573 999.453 260.48 999.64C265.34 999.909 270.215 999.677 275.027 998.947C279.825 998.164 284.515 996.821 289 994.947C293.461 993.024 297.599 990.424 301.267 987.239C304.879 983.925 308.277 980.386 311.44 976.64C314.679 972.883 318.249 969.424 322.107 966.307C323.12 965.572 324.067 964.76 325.133 964.093L328.28 962.08L331.547 960.28C332.627 959.653 333.787 959.2 334.907 958.653C343.987 954.604 353.717 952.21 363.64 951.586C367.088 951.341 370.545 951.279 374 951.4Z" fill="white"/>
</g>
<defs>
<clipPath id="clip0_57_3776">
<rect width="1706.67" height="1066.67" fill="white"/>
</clipPath>
</defs>
</svg>
