<svg width="666" height="64" viewBox="0 0 666 64" fill="none" xmlns="http://www.w3.org/2000/svg">
  <path
    d="M1.737 49.56C0.585 45.336 8.073 43.896 8.841 47.832C11.337 55.8 21.993 57.048 29.673 57.048C37.833 57.048 50.505 55.032 50.505 45.336C50.505 36.984 40.425 36.312 29.865 35.448C16.617 34.392 2.409 33.144 2.409 18.84C2.409 6.168 17.001 0.983997 28.713 0.983997C38.793 0.983997 51.369 2.904 55.401 13.848C56.841 17.688 50.313 19.416 48.873 16.152C45.993 8.856 35.721 8.088 28.809 8.088C22.377 8.088 9.897 10.2 9.897 18.936C9.897 27.288 19.497 28.152 30.633 29.016C43.785 30.168 57.897 30.84 57.897 45.24C57.897 59.928 41.481 63.96 29.673 63.96C19.881 63.96 4.905 61.08 1.737 49.56ZM111.657 1.944C116.361 1.944 116.361 8.568 111.657 8.568H90.249L90.345 59.448C90.345 61.848 88.329 63 86.697 63C85.065 63 83.241 61.848 83.241 59.448V8.568H61.929C57.417 8.568 57.417 1.944 61.929 1.944H111.657ZM139.602 0.983997C140.85 0.983997 142.002 1.56 142.674 2.808L170.994 58.392C172.338 61.08 170.13 63 167.73 63C166.482 63 165.234 62.52 164.562 61.176L157.65 47.544H121.554L114.45 61.272C113.778 62.52 112.722 63 111.57 63C109.362 63 106.962 60.984 108.114 58.488L136.434 2.808C137.01 1.56 138.354 0.983997 139.602 0.983997ZM139.602 11.256L124.434 41.496H154.674L139.602 11.256ZM188.492 41.688V59.64C188.492 61.848 186.764 63 184.94 63C183.212 63 181.484 61.848 181.484 59.736V5.304C181.484 3.288 182.924 1.944 185.036 1.944H207.788C224.396 1.944 232.844 11.352 232.844 22.584C232.844 32.28 227.564 39.288 215.756 41.304L230.444 57.144C233.132 59.832 230.828 63 228.236 63C227.372 63 226.412 62.616 225.644 61.752L207.116 41.688H188.492ZM188.492 35.64H207.884C220.268 35.64 225.74 29.976 225.74 22.968C225.644 14.712 219.02 8.376 207.884 8.376H188.492V35.64ZM244.673 6.07199C244.673 3.86399 246.593 1.944 248.897 1.944H288.449C292.481 1.944 292.481 7.992 288.449 7.992H251.585V32.088H286.625C290.465 32.088 290.465 38.04 286.625 38.04H251.585V59.352C251.585 61.752 249.857 63 248.129 63C246.401 63 244.673 61.752 244.673 59.448V6.07199ZM331.187 63.96C313.907 63.96 300.083 51.768 300.083 31.416C300.083 9.912 317.747 0.983997 330.419 0.983997C343.283 0.983997 361.907 9.816 361.907 31.416C361.907 51.384 347.507 63.96 331.187 63.96ZM307.283 31.704C307.283 47.448 317.651 57.432 331.187 57.432C344.147 57.432 354.803 47.832 354.803 31.704C354.803 14.136 340.499 7.41599 330.611 7.41599C320.819 7.41599 307.283 13.656 307.283 31.704ZM382.367 41.688V59.64C382.367 61.848 380.639 63 378.815 63C377.087 63 375.359 61.848 375.359 59.736V5.304C375.359 3.288 376.799 1.944 378.911 1.944H401.663C418.271 1.944 426.719 11.352 426.719 22.584C426.719 32.28 421.439 39.288 409.631 41.304L424.319 57.144C427.007 59.832 424.703 63 422.111 63C421.247 63 420.287 62.616 419.519 61.752L400.991 41.688H382.367ZM382.367 35.64H401.759C414.143 35.64 419.615 29.976 419.615 22.968C419.519 14.712 412.895 8.376 401.759 8.376H382.367V35.64ZM490.388 49.272C490.388 50.328 490.196 51.288 489.332 52.44C483.668 59.928 474.164 63.96 464.852 63.96C448.34 63.96 434.132 50.136 434.516 31.992C434.516 11.16 452.66 0.983997 465.14 0.983997C473.492 0.983997 482.42 3.86399 487.7 10.008C490.58 13.368 485.684 17.976 482.708 14.52C478.58 9.72 472.244 7.32 466.292 7.32C456.02 7.32 441.428 15.864 441.428 32.28C441.62 45.816 452.564 57.144 464.948 57.432C472.052 57.528 479.444 54.456 483.668 48.792V36.024H466.388C461.876 36.024 462.356 29.688 466.388 29.688H486.74C489.524 29.688 490.388 31.128 490.388 33.24V49.272ZM510.989 56.664H548.909C552.941 56.664 553.517 63 548.909 63H508.493C505.805 63 504.077 61.08 504.077 58.776V6.07199C504.077 3.86399 505.805 1.944 508.493 1.944H549.005C553.133 1.944 552.941 8.088 548.909 8.088H510.989V29.688H547.085C550.925 29.688 551.117 35.832 547.085 35.832H510.989V56.664ZM616.696 0.983997C617.944 0.983997 619.096 1.56 619.768 2.808L648.088 58.392C649.432 61.08 647.224 63 644.824 63C643.576 63 642.328 62.52 641.656 61.176L634.744 47.544H598.648L591.544 61.272C590.872 62.52 589.816 63 588.664 63C586.456 63 584.056 60.984 585.208 58.488L613.528 2.808C614.104 1.56 615.448 0.983997 616.696 0.983997ZM616.696 11.256L601.528 41.496H631.768L616.696 11.256ZM657.905 5.496C657.905 3.096 659.729 1.944 661.457 1.944C663.281 1.944 665.105 3.096 665.105 5.496V59.64C665.105 61.848 663.281 63 661.457 63C659.633 63 657.905 61.944 657.905 59.64V5.496Z"
    fill="#333" />
</svg>